<svg width="225" height="177" viewBox="0 0 225 177" fill="none" xmlns="http://www.w3.org/2000/svg">
<rect width="225" height="175" fill="#494949"/>
<path d="M184.5 103H198.5" stroke="white"/>
<path d="M201 103.5L200.5 148V149.5L199.5 151V152.5L199 154" stroke="white"/>
<path d="M183 155.5L184.5 102" stroke="white"/>
<path d="M202.5 18L201.561 71.5M201.5 75L201.531 73.25L201.546 72.375M203 32.5C203 31.401 202.998 30.5779 202.994 30M201.561 71.5C201.561 71.5 202.5 68.5 202.5 66.5C202.5 64.6293 202.937 21.6389 202.994 30M201.561 71.5L201.546 72.375M203 69.5C202.5 71.5 201.546 72.375 201.546 72.375M203 17.5L202.994 30" stroke="white"/>
<line x1="114.5" y1="0.00852149" x2="111.5" y2="176.009" stroke="white"/>
<line x1="223.5" y1="0.00852149" x2="220.5" y2="176.009" stroke="white"/>
<path d="M184 17.5H201" stroke="white"/>
<line x1="114" y1="1.5" x2="223" y2="1.5" stroke="white"/>
<line x1="111" y1="174.5" x2="221" y2="174.5" stroke="white"/>
<line x1="148.5" y1="14" x2="148.5" y2="76" stroke="white"/>
<path d="M184 18V82" stroke="white"/>
<line x1="183" y1="80.5" x2="199" y2="80.5" stroke="white"/>
<path d="M184.381 81.2543C184.691 81.2543 185.001 81.2543 185.311 81.2543C185.434 81.2543 185.391 81.2543 185.291 81.2543C185.097 81.2543 184.905 81.2479 184.714 81.288C184.606 81.3104 184.633 81.3843 184.728 81.3843C184.844 81.3843 184.959 81.3843 185.075 81.3843C185.223 81.3843 185.457 81.427 185.595 81.3747C185.721 81.3267 186.22 81.2543 185.831 81.2543C185.684 81.2543 185.503 81.2347 185.359 81.2085C185.102 81.1619 185.598 81.1676 185.648 81.1676C185.934 81.1676 186.219 81.1676 186.505 81.1676C186.648 81.1676 186.714 81.176 186.498 81.1652C186.281 81.1544 186.072 81.1243 185.855 81.1243C185.561 81.1243 186.445 81.1644 186.731 81.2326C186.793 81.2474 186.07 81.3078 185.995 81.3939C185.985 81.4046 186.434 81.4276 186.495 81.4276C186.608 81.4276 186.72 81.4276 186.832 81.4276C187.014 81.4276 187.249 81.4207 187.415 81.3506C187.59 81.277 187.946 81.341 188.13 81.341C189.353 81.341 190.569 81.2543 191.792 81.2543" stroke="white" stroke-width="0.5" stroke-linecap="round"/>
<path d="M191.923 81.2543C191.442 81.2543 190.977 81.3843 190.49 81.3843C190.001 81.3843 189.513 81.3843 189.024 81.3843C188.563 81.3843 188.091 81.4147 187.632 81.3819C187.512 81.3733 187.325 81.3673 187.208 81.3313C187.161 81.3169 187.112 81.3021 187.191 81.2952C187.399 81.2772 187.599 81.2214 187.808 81.2133C188.036 81.2046 188.271 81.202 188.499 81.2206C188.694 81.2364 188.872 81.3209 189.062 81.3409C189.278 81.3636 188.629 81.3479 188.412 81.3385C187.916 81.317 187.44 81.2109 186.941 81.2109C186.86 81.2109 186.71 81.2409 186.635 81.2013C186.57 81.1663 186.731 81.1631 186.734 81.1628C186.937 81.1338 187.124 81.0809 187.331 81.0809C187.726 81.0809 188.121 81.0809 188.516 81.0809C189.998 81.0809 191.459 81.1242 192.941 81.1242C193.406 81.1242 193.804 81.063 194.261 80.9774C194.552 80.9226 194.875 80.9509 195.171 80.9509C195.5 80.9509 195.821 80.9076 196.146 80.9076C196.934 80.9076 197.722 80.9076 198.51 80.9076C198.69 80.9076 198.997 80.8945 198.631 80.9076C198.363 80.9171 198.097 81.0145 197.85 81.0905C197.736 81.1258 197.651 81.2311 197.537 81.2519C197.448 81.2682 197.345 81.2543 197.253 81.2543C197.094 81.2543 196.935 81.2543 196.777 81.2543C196.375 81.2543 195.98 81.3409 195.573 81.3409C195.006 81.3409 194.44 81.3409 193.873 81.3409C192.973 81.3409 192.09 81.3843 191.186 81.3843" stroke="white" stroke-width="0.5" stroke-linecap="round"/>
<path d="M188.499 81.731C189.098 81.731 189.698 81.731 190.297 81.731C190.573 81.731 190.808 81.6952 191.075 81.6468C191.345 81.5976 191.667 81.6444 191.942 81.6444C192.506 81.6444 193.07 81.6444 193.634 81.6444C194.156 81.6444 194.649 81.5143 195.173 81.5143" stroke="white" stroke-width="0.5" stroke-linecap="round"/>
<path d="M202.745 69.9717C202.919 69.7869 202.835 69.4424 202.835 69.2073C202.835 68.9542 202.835 68.7011 202.835 68.4479C202.835 68.1745 202.732 67.8755 202.792 67.6033C202.837 67.3999 202.817 67.6224 202.845 67.661C202.921 67.7661 202.929 68.0117 202.97 68.1447C203.069 68.4652 203.224 68.8183 203.241 69.1597C203.247 69.2746 203.241 69.9089 203.241 69.5106C203.241 69.1657 203.271 68.8067 203.238 68.463C203.225 68.3214 203.137 68.1739 203.106 68.0319C203.053 67.7943 202.925 67.6195 202.925 67.3778C202.925 67.1822 202.988 66.8407 202.88 66.6785" stroke="white" stroke-width="0.5" stroke-linecap="round"/>
<path d="M201.151 17.8259C201.067 17.8153 201.275 17.5961 201.304 17.5498C201.357 17.4658 201.343 17.3667 201.343 17.2716C201.343 17.1301 201.087 17.2917 201.045 17.3374C200.996 17.3912 201.212 17.4436 201.092 17.4436C200.862 17.4436 201.113 17.4115 201.207 17.3672C201.419 17.2659 201.124 17.2907 201.037 17.2907C200.849 17.2907 201.024 17.3042 201.094 17.2886C201.259 17.252 201.007 17.2142 200.96 17.2142" stroke="white" stroke-width="0.5" stroke-linecap="round"/>
<path d="M201.113 16.8319C200.96 16.8319 200.849 16.9002 200.693 16.9084C200.543 16.9163 200.398 16.9466 200.242 16.9466C199.946 16.9466 199.65 16.9466 199.354 16.9466C198.625 16.9466 197.884 16.9084 197.146 16.9084C196.443 16.9084 195.753 16.9848 195.053 16.9848C194.292 16.9848 193.531 16.9848 192.77 16.9848C191.887 16.9848 191.005 16.9848 190.122 16.9848C189.809 16.9848 189.496 16.9848 189.183 16.9848C188.822 16.9848 188.471 16.8701 188.115 16.8701C186.87 16.8701 185.648 16.9084 184.406 16.9084" stroke="white" stroke-width="0.5" stroke-linecap="round"/>
<path d="M183.642 17.5965C183.642 17.782 183.642 17.9675 183.642 18.153C183.642 18.208 183.652 18.0429 183.665 17.9894C183.706 17.82 183.782 17.662 183.793 17.4861C183.815 17.1333 183.84 17.3752 183.814 17.5923C183.81 17.6271 183.795 18.0247 183.795 17.8641C183.795 17.7847 183.795 17.5876 183.795 17.7961C183.795 17.9911 183.778 18.4194 183.824 17.9703C183.835 17.8731 183.833 17.5795 183.833 17.6772C183.833 17.803 183.826 17.9229 183.803 18.0468C183.781 18.1678 183.795 18.0383 183.795 17.9894C183.795 17.8449 183.812 17.6891 183.793 17.5455C183.781 17.4613 183.665 17.4784 183.604 17.4818C183.497 17.4877 183.493 17.7436 183.472 17.8238C183.443 17.9295 183.565 18.1273 183.565 17.9937C183.565 17.8702 183.538 17.5905 183.497 17.8726C183.475 18.0247 183.451 18.4851 183.451 18.3314C183.451 18.2261 183.432 17.8375 183.497 17.7579C183.551 17.6922 183.666 17.9745 183.68 18.017" stroke="white" stroke-width="0.5" stroke-linecap="round"/>
<path d="M166 15.5C166.4 20.7 166.167 39.3333 166 48C166 54 167 69.5 167.5 76.5M167.5 76.5C167.5 76.5 167 79.1667 167 79C167.333 78.1667 166.5 81 167.5 76.5Z" stroke="white"/>
<path d="M166.5 45.5C167.5 66.5 167.5 66.5 167.5 67.5" stroke="white"/>
<path d="M166.737 45.7467C166.737 45.4529 166.705 45.1676 166.705 44.8689C166.705 44.6232 166.641 44.4025 166.641 44.1507C166.641 43.5226 166.609 42.8853 166.609 42.2498C166.609 41.9153 166.609 41.5807 166.609 41.2462C166.609 41.0704 166.624 40.8973 166.552 40.7355C166.502 40.6217 166.481 40.4601 166.481 40.3365C166.481 39.7509 166.513 39.1837 166.513 38.5969" stroke="white" stroke-width="0.5" stroke-linecap="round"/>
<path d="M167.535 67.3555C167.535 67.2999 167.535 67.1332 167.535 67.1888C167.535 67.3669 167.549 67.5419 167.567 67.719C167.59 67.9411 167.663 68.1601 167.663 68.384C167.663 68.4383 167.663 68.4925 167.663 68.3999C167.663 68.1588 167.631 67.9198 167.631 67.6782C167.631 67.5209 167.65 67.3925 167.688 67.242C167.707 67.1649 167.717 67.1168 167.734 67.242C167.756 67.4116 167.759 67.5784 167.759 67.7492C167.759 67.8255 167.766 67.9079 167.808 67.7988C167.851 67.6877 167.987 67.4514 167.911 67.6995C167.832 67.9567 167.882 68.2672 167.853 68.5365C167.843 68.6184 167.792 68.682 167.791 68.767C167.789 68.8455 167.795 68.9101 167.766 68.9833C167.704 69.1369 167.727 69.3661 167.727 69.5277C167.727 69.8345 167.643 70.7451 167.72 70.448C167.774 70.2378 167.682 69.9948 167.666 69.7849C167.651 69.5731 167.663 69.357 167.663 69.1447C167.663 68.945 167.626 68.8082 167.542 68.6322C167.527 68.6005 167.535 68.5547 167.535 68.5205C167.535 68.4216 167.535 68.7402 167.535 68.7493C167.535 69.1114 167.483 69.5134 167.581 69.8629C167.641 70.0779 167.631 70.3687 167.631 70.5952C167.631 70.8292 167.727 71.0572 167.727 71.2957C167.727 71.7485 167.759 72.2057 167.759 72.654C167.759 72.787 167.759 72.92 167.759 73.053C167.759 73.187 167.822 73.2933 167.822 73.42C167.822 73.6576 167.822 73.8937 167.822 74.1258C167.822 74.5502 167.822 74.9746 167.822 75.399" stroke="white" stroke-width="0.5" stroke-linecap="round"/>
<path d="M167.631 68.9195C167.631 68.7237 167.58 68.5724 167.471 68.4088" stroke="white" stroke-width="0.5" stroke-linecap="round"/>
<path d="M166.705 69.9409C166.705 70.6397 166.96 71.3216 166.96 72.0156C166.96 72.5795 166.96 73.1434 166.96 73.7073C166.96 74.5046 166.96 75.2905 166.96 76.087C166.96 76.3212 166.934 76.5716 166.872 76.7963C166.825 76.9667 166.865 77.2002 166.865 77.3779C166.865 77.5213 166.841 77.6519 166.833 77.7929C166.829 77.8524 166.806 77.5977 166.817 77.5375C166.85 77.351 166.899 77.1725 166.936 76.9878C167.017 76.5704 167.024 76.1609 167.024 75.7324C167.024 75.3155 166.873 74.9124 166.865 74.4911C166.856 74.0493 166.865 73.6066 166.865 73.1647C166.865 72.9913 166.801 72.8293 166.801 72.654C166.801 72.4625 166.801 72.271 166.801 72.0795C166.801 71.7709 166.801 71.4624 166.801 71.1538C166.801 71.1054 166.801 70.9599 166.801 71.0084C166.801 71.1834 166.801 71.3583 166.801 71.5333C166.801 71.8815 166.833 72.2274 166.833 72.5742C166.833 73.6423 166.833 74.7272 166.833 75.782C166.833 76.1283 166.865 76.4697 166.865 76.8176C166.865 76.9937 166.865 77.1699 166.865 77.346C166.865 77.5053 166.871 77.7477 166.801 77.8886" stroke="white" stroke-width="0.5" stroke-linecap="round"/>
<line x1="149" y1="78.5" x2="167" y2="78.5" stroke="white"/>
<path d="M149.196 79.4001C149.598 79.4001 150.01 79.4197 150.404 79.5004C150.65 79.5507 150.327 79.5355 150.249 79.5355C149.945 79.5355 149.639 79.5503 149.339 79.4904C148.861 79.3946 149.85 79.3009 149.958 79.2874C150.153 79.263 150.35 79.2439 150.545 79.2222C150.742 79.2003 150.34 79.2197 150.289 79.2197C149.804 79.2197 150.798 79.2197 150.384 79.2197C150.072 79.2197 149.135 79.2197 149.447 79.2197C149.578 79.2197 149.709 79.2197 149.841 79.2197C149.951 79.2197 149.623 79.1776 149.512 79.1746C149.407 79.1717 149.157 79.1282 149.106 79.2422C149.082 79.2975 149.003 79.5815 149.171 79.4853C149.249 79.4408 149.169 79.0594 149.141 78.9941C149.081 78.8509 149.117 78.7517 149.149 78.6107C149.166 78.5315 149.076 78.7673 149.116 78.8588C149.176 78.9941 149.096 79.164 149.287 79.1746C149.721 79.1987 150.207 79.3168 150.633 79.4177C150.92 79.4857 151.249 79.4452 151.542 79.4452C151.963 79.4452 152.384 79.4452 152.805 79.4452C152.971 79.4452 153.136 79.4452 153.302 79.4452C153.559 79.4452 153.157 79.4762 153.089 79.4929C152.673 79.5946 152.237 79.6135 151.815 79.6909C151.486 79.7512 151.163 79.761 150.83 79.761C150.598 79.761 150.506 79.7376 150.445 79.4929C150.434 79.4518 151.822 79.4452 151.983 79.4452C152.039 79.4452 152.505 79.4452 152.249 79.4452C151.621 79.4452 151.055 79.3376 150.45 79.1746C150.35 79.1477 149.553 78.9941 149.988 78.9941C150.501 78.9941 150.959 79.1239 151.465 79.1721C152.018 79.2248 152.521 79.3099 153.081 79.3099C153.255 79.3099 152.857 79.3099 152.815 79.3099C152.635 79.3099 152.468 79.3028 152.294 79.3525C152.124 79.4012 152.648 79.3587 152.825 79.3525C153.063 79.3442 153.312 79.3194 153.545 79.2648C153.771 79.2115 153.085 79.2779 153.021 79.2874C152.814 79.3179 152.619 79.355 152.409 79.355C152.287 79.355 152.264 79.3615 152.414 79.345C152.805 79.3022 153.195 79.3099 153.587 79.3099C153.845 79.3099 153.742 79.3146 153.53 79.3074C153.094 79.2926 152.625 79.2735 152.194 79.2097C151.96 79.175 152.093 79.1343 152.259 79.1295C152.712 79.1163 153.147 78.9975 153.602 78.9941C153.86 78.9922 154.117 78.9941 154.374 78.9941C154.789 78.9941 153.544 78.9839 153.131 79.0192C152.898 79.0391 152.203 79.1295 152.437 79.1295C152.859 79.1295 153.281 79.1266 153.703 79.1295C154.07 79.1319 154.417 79.221 154.78 79.2548C154.97 79.2723 155.215 79.2153 155.397 79.2673C155.478 79.2905 155.079 79.3931 155.053 79.3951C154.735 79.4196 154.414 79.4724 154.096 79.4878C153.923 79.4963 153.748 79.4904 153.575 79.4904C153.19 79.4904 153.668 79.4623 153.808 79.4352C154.302 79.3395 155.815 79.3099 155.312 79.3099C155.048 79.3099 154.783 79.3025 154.52 79.3199C154.249 79.3379 153.839 79.3393 153.587 79.4653C153.379 79.5697 154.055 79.4563 154.287 79.4252C154.521 79.3936 154.757 79.4001 154.993 79.4001C155.5 79.4001 156.008 79.4001 156.515 79.4001C157.185 79.4001 157.855 79.4001 158.525 79.4001C159.135 79.4001 159.75 79.355 160.364 79.355C161.027 79.355 161.684 79.3762 162.342 79.2874C162.793 79.2264 163.265 79.0843 163.712 79.0843C163.873 79.0843 164.033 79.0843 164.194 79.0843C164.556 79.0843 164.183 79.0843 164.028 79.0843C163.059 79.0843 162.115 79.1746 161.149 79.1746C159.912 79.1746 158.652 79.1295 157.407 79.1295C156.955 79.1295 156.501 79.0843 156.056 79.0843C155.731 79.0843 155.456 79.0209 155.129 79.1069C155.059 79.1252 154.747 79.1295 154.818 79.1295C155.723 79.1295 156.578 79.2416 157.467 79.4252C158.093 79.5546 158.726 79.3099 159.347 79.3099" stroke="white" stroke-width="0.5" stroke-linecap="round"/>
<line x1="117.5" y1="82" x2="117.5" y2="103" stroke="white"/>
<line x1="119" y1="82.5" x2="123" y2="82.5" stroke="white"/>
<line x1="122.5" y1="83" x2="122.5" y2="91" stroke="white"/>
<line x1="120" y1="90.5" x2="132" y2="90.5" stroke="white"/>
<line x1="130.5" y1="89" x2="130.5" y2="93" stroke="white"/>
<line x1="120.5" y1="91" x2="120.5" y2="95" stroke="white"/>
<line x1="121" y1="94.5" x2="130" y2="94.5" stroke="white"/>
<line x1="118" y1="102.5" x2="121" y2="102.5" stroke="white"/>
<line x1="120.5" y1="102" x2="120.5" y2="104" stroke="white"/>
<line x1="147" y1="15.5" x2="167" y2="15.5" stroke="white"/>
<path d="M144.5 155.5L147 103.5H166L162.5 154.5L162 155C159.833 155.167 154.6 155.8 151 157H145.5" stroke="white"/>
<line x1="182" y1="155.5" x2="201" y2="155.5" stroke="white"/>
<path d="M183.587 151.398C183.587 151.425 183.595 151.45 183.603 151.476C183.628 151.56 183.636 151.646 183.653 151.732C183.668 151.81 183.681 151.89 183.681 151.969C183.681 152.026 183.687 152.086 183.679 152.142C183.669 152.209 183.648 152.276 183.644 152.345C183.631 152.547 183.636 152.739 183.657 152.941C183.693 153.283 183.699 153.619 183.699 153.963C183.699 154.197 183.718 154.429 183.718 154.662C183.718 154.731 183.72 154.797 183.728 154.863C183.732 154.897 183.746 154.935 183.736 154.97C183.732 154.983 183.659 154.975 183.649 154.975C183.604 154.975 183.662 155.015 183.68 155.02C183.72 155.033 183.761 155.031 183.802 155.031" stroke="white" stroke-width="0.5" stroke-linecap="round"/>
<path d="M182.794 156.077C182.911 156.11 183.036 156.118 183.157 156.137C183.303 156.161 183.451 156.193 183.6 156.198C183.731 156.202 183.862 156.198 183.993 156.198C184.074 156.198 184.158 156.203 184.238 156.193C184.3 156.185 184.353 156.17 184.417 156.17C184.623 156.17 184.83 156.17 185.036 156.17C185.149 156.17 185.262 156.174 185.374 156.157C185.421 156.149 185.477 156.138 185.519 156.112C185.551 156.092 185.541 156.068 185.505 156.067C185.422 156.065 185.338 156.068 185.255 156.078C185.008 156.109 184.764 156.123 184.515 156.123C184.268 156.123 184.023 156.142 183.776 156.142C183.401 156.142 183.025 156.142 182.65 156.142C182.589 156.142 182.546 156.117 182.486 156.114C182.46 156.113 182.434 156.101 182.416 156.086C182.395 156.07 182.362 156.078 182.341 156.062C182.296 156.027 182.307 156.039 182.376 156.039C182.541 156.039 182.709 156.03 182.874 156.04C182.939 156.044 183.001 156.058 183.067 156.058C183.158 156.059 183.249 156.058 183.34 156.058C183.613 156.058 183.873 155.983 184.145 155.972C184.307 155.965 184.47 155.961 184.632 155.966C184.769 155.97 184.903 156.004 185.04 156.016C185.164 156.025 185.29 156.03 185.415 156.03C185.608 156.03 185.798 156.025 185.991 156.016C186.14 156.008 186.294 156.027 186.441 156.009C186.496 156.003 186.546 155.98 186.601 155.976C186.706 155.968 186.808 155.953 186.912 155.942C186.977 155.935 187.042 155.941 187.106 155.936C187.214 155.926 187.315 155.899 187.425 155.899C187.54 155.899 187.655 155.899 187.77 155.899C187.987 155.899 188.2 155.93 188.416 155.948C188.675 155.969 188.935 156.005 189.195 155.992C189.451 155.979 189.708 155.962 189.964 155.955C189.991 155.955 190.058 155.931 190.069 155.909" stroke="white" stroke-width="0.5" stroke-linecap="round"/>
<path d="M187.501 155.031C187.524 155.019 187.549 155.015 187.574 155.011C187.7 154.99 187.827 154.976 187.953 154.962C188.38 154.912 188.814 154.908 189.243 154.909C189.449 154.91 189.654 154.915 189.859 154.935C190.074 154.956 190.287 154.993 190.503 155.014C190.808 155.044 191.119 155.036 191.424 154.997C191.729 154.958 192.026 154.929 192.335 154.928C192.577 154.927 192.814 154.925 193.054 154.886C193.211 154.861 193.368 154.826 193.517 154.769C193.562 154.752 193.603 154.729 193.637 154.695" stroke="white" stroke-width="0.5" stroke-linecap="round"/>
<path d="M190.957 154.919C191.865 154.919 192.774 154.912 193.683 154.895C193.935 154.891 194.188 154.891 194.441 154.891C194.577 154.891 194.714 154.901 194.842 154.853" stroke="white" stroke-width="0.5" stroke-linecap="round"/>
<path d="M193.235 154.891C193.555 154.874 193.868 154.865 194.187 154.9C194.419 154.926 194.649 154.956 194.883 154.97C195.06 154.98 195.235 155.002 195.411 155.021" stroke="white" stroke-width="0.5" stroke-linecap="round"/>
<path d="M189.621 154.937C190.405 154.82 191.194 154.825 191.986 154.825C192.476 154.825 192.97 154.845 193.46 154.816" stroke="white" stroke-width="0.5" stroke-linecap="round"/>
<path d="M189.995 154.835C191.149 154.835 192.302 154.854 193.455 154.875C193.74 154.88 194.029 154.891 194.314 154.877C194.377 154.874 194.428 154.863 194.487 154.844" stroke="white" stroke-width="0.5" stroke-linecap="round"/>
<path d="M191.461 154.825C192.643 154.75 193.822 154.795 194.994 154.955C195.398 155.01 195.806 155.087 196.215 155.087" stroke="white" stroke-width="0.5" stroke-linecap="round"/>
<path d="M193.777 154.732C194.573 154.76 195.371 154.897 196.155 155.033C196.373 155.071 196.592 155.113 196.812 155.133" stroke="white" stroke-width="0.5" stroke-linecap="round"/>
<path d="M193.59 154.657C193.863 154.665 194.126 154.707 194.395 154.748C194.653 154.787 194.913 154.811 195.171 154.849C195.565 154.906 195.967 154.972 196.366 154.975C196.528 154.976 196.691 154.978 196.853 154.974C197.015 154.97 197.176 154.953 197.338 154.957C197.456 154.959 197.571 154.984 197.69 154.984" stroke="white" stroke-width="0.5" stroke-linecap="round"/>
<path d="M197.195 155.021C197.444 155.008 197.688 154.984 197.937 154.984C198.214 154.984 198.49 154.989 198.766 154.973C199.006 154.958 199.243 154.909 199.483 154.909" stroke="white" stroke-width="0.5" stroke-linecap="round"/>
<path d="M198.839 154.844C199.381 154.844 199.922 154.881 200.464 154.881" stroke="white" stroke-width="0.5" stroke-linecap="round"/>
<path d="M200.604 154.797C200.768 154.797 200.932 154.797 201.096 154.797C201.14 154.797 201.189 154.803 201.233 154.795C201.264 154.79 201.211 154.788 201.204 154.788C201.119 154.788 201.038 154.775 200.969 154.849C200.92 154.902 200.917 154.964 200.894 155.028C200.85 155.146 200.945 155.29 200.982 155.401C200.99 155.424 200.997 155.447 201.01 155.468C201.011 155.469 201.034 155.496 201.027 155.497C200.968 155.51 200.911 155.518 200.873 155.572C200.798 155.68 201.014 155.772 201.079 155.688C201.092 155.671 201.117 155.585 201.097 155.565C201.067 155.536 200.977 155.632 200.967 155.651C200.942 155.701 200.945 155.845 200.98 155.894C201.01 155.938 201.013 155.956 201.015 156.007C201.016 156.055 201.07 156.044 201.094 156.019C201.123 155.989 201.136 155.937 201.15 155.899C201.169 155.85 201.192 155.801 201.207 155.752C201.219 155.712 201.209 155.659 201.225 155.623C201.257 155.553 201.22 155.441 201.22 155.365C201.22 155.273 201.177 155.147 201.08 155.115" stroke="white" stroke-width="0.5" stroke-linecap="round"/>
<path d="M198.96 153.779C198.999 153.802 198.921 154.02 198.913 154.048C198.878 154.159 198.843 154.27 198.797 154.377C198.767 154.449 198.727 154.516 198.7 154.589C198.687 154.625 198.643 154.725 198.642 154.687C198.64 154.63 198.652 154.57 198.652 154.512C198.652 154.42 198.651 154.328 198.667 154.238C198.681 154.157 198.648 154.268 198.64 154.287C198.583 154.424 198.514 154.553 198.452 154.688C198.447 154.699 198.47 154.671 198.476 154.661C198.521 154.584 198.54 154.494 198.557 154.407C198.575 154.311 198.594 154.214 198.609 154.116C198.613 154.089 198.611 154.058 198.622 154.031C198.65 153.965 198.578 154.168 198.55 154.234C198.522 154.301 198.49 154.375 198.477 154.448C198.471 154.477 198.544 154.422 198.545 154.422C198.651 154.334 198.666 154.192 198.708 154.07C198.718 154.041 198.735 154.013 198.736 153.983C198.74 153.893 198.686 154.088 198.68 154.106C198.66 154.165 198.653 154.265 198.577 154.284" stroke="white" stroke-width="0.5" stroke-linecap="round"/>
<path d="M199.212 153.91C199.313 153.91 199.227 154.078 199.208 154.129C199.166 154.244 199.121 154.358 199.07 154.469C199.046 154.521 199.03 154.567 199.04 154.483C199.047 154.426 199.059 154.371 199.068 154.315C199.07 154.304 199.077 154.241 199.062 154.289C199.037 154.367 199.007 154.445 199.007 154.526" stroke="white" stroke-width="0.5" stroke-linecap="round"/>
<path d="M199.016 154.545C199.016 154.659 198.87 154.732 198.783 154.769" stroke="white" stroke-width="0.5" stroke-linecap="round"/>
<path d="M39.5 103H25.5" stroke="white"/>
<path d="M23 103.5L23.5 148V149.5L24.5 151V152.5L25 154" stroke="white"/>
<path d="M41 155.5L39.5 102" stroke="white"/>
<path d="M21.5 18L22.4386 71.5M22.5 75L22.4693 73.25L22.4539 72.375M21 32.5C21 31.401 21.0021 30.5779 21.006 30M22.4386 71.5C22.4386 71.5 21.5 68.5 21.5 66.5C21.5 64.6293 21.0626 21.6389 21.006 30M22.4386 71.5L22.4539 72.375M21 69.5C21.5 71.5 22.4539 72.375 22.4539 72.375M21 17.5L21.006 30" stroke="white"/>
<line x1="112.5" y1="0.00852149" x2="109.5" y2="176.009" stroke="white"/>
<line y1="-0.5" x2="176.026" y2="-0.5" transform="matrix(0.017043 0.999855 0.999855 -0.017043 1 0)" stroke="white"/>
<path d="M40 17.5H23" stroke="white"/>
<line x1="113.004" y1="1.49998" x2="1.00447" y2="2.49998" stroke="white"/>
<line x1="109.005" y1="174.5" x2="3.00472" y2="175.5" stroke="white"/>
<line y1="-0.5" x2="62" y2="-0.5" transform="matrix(0 1 1 0 76 14)" stroke="white"/>
<path d="M40 18V82" stroke="white"/>
<line y1="-0.5" x2="16" y2="-0.5" transform="matrix(-1 0 0 1 41 81)" stroke="white"/>
<path d="M39.6187 81.2543C39.3089 81.2543 38.9991 81.2543 38.6893 81.2543C38.566 81.2543 38.6094 81.2543 38.7085 81.2543C38.9029 81.2543 39.0948 81.2479 39.2864 81.288C39.3936 81.3104 39.3674 81.3843 39.2719 81.3843C39.1564 81.3843 39.0408 81.3843 38.9252 81.3843C38.777 81.3843 38.5426 81.427 38.4052 81.3747C38.2793 81.3267 37.7805 81.2543 38.1692 81.2543C38.3159 81.2543 38.497 81.2347 38.6411 81.2085C38.8976 81.1619 38.4022 81.1676 38.3522 81.1676C38.0665 81.1676 37.7808 81.1676 37.4951 81.1676C37.3521 81.1676 37.286 81.176 37.5023 81.1652C37.7185 81.1544 37.928 81.1243 38.1451 81.1243C38.4395 81.1243 37.5551 81.1644 37.2687 81.2326C37.2067 81.2474 37.9301 81.3078 38.0055 81.3939C38.0148 81.4046 37.5658 81.4276 37.5047 81.4276C37.3923 81.4276 37.28 81.4276 37.1676 81.4276C36.9862 81.4276 36.7514 81.4207 36.5849 81.3506C36.4102 81.277 36.0544 81.341 35.8698 81.341C34.6475 81.341 33.4315 81.2543 32.2077 81.2543" stroke="white" stroke-width="0.5" stroke-linecap="round"/>
<path d="M32.0774 81.2543C32.5584 81.2543 33.0229 81.3843 33.5099 81.3843C33.9987 81.3843 34.4875 81.3843 34.9762 81.3843C35.4371 81.3843 35.9086 81.4147 36.3679 81.3819C36.4883 81.3733 36.6746 81.3673 36.7917 81.3313C36.8385 81.3169 36.8885 81.3021 36.8085 81.2952C36.6011 81.2772 36.4011 81.2214 36.1921 81.2133C35.9638 81.2046 35.7289 81.202 35.5011 81.2206C35.3059 81.2364 35.1278 81.3209 34.9377 81.3409C34.7222 81.3636 35.3713 81.3479 35.5878 81.3385C36.0837 81.317 36.5603 81.2109 37.0589 81.2109C37.1403 81.2109 37.2904 81.2409 37.3647 81.2013C37.4304 81.1663 37.2686 81.1631 37.266 81.1628C37.063 81.1338 36.876 81.0809 36.6689 81.0809C36.274 81.0809 35.8791 81.0809 35.4843 81.0809C34.0022 81.0809 32.5415 81.1242 31.0589 81.1242C30.5943 81.1242 30.1962 81.063 29.7395 80.9774C29.4476 80.9226 29.1254 80.9509 28.8294 80.9509C28.5 80.9509 28.1786 80.9076 27.8542 80.9076C27.0661 80.9076 26.278 80.9076 25.4899 80.9076C25.3105 80.9076 25.0028 80.8945 25.3695 80.9076C25.6366 80.9171 25.9026 81.0145 26.1496 81.0905C26.2642 81.1258 26.3486 81.2311 26.4626 81.2519C26.5525 81.2682 26.6551 81.2543 26.7467 81.2543C26.9056 81.2543 27.0645 81.2543 27.2234 81.2543C27.6254 81.2543 28.0203 81.3409 28.4273 81.3409C28.9939 81.3409 29.5605 81.3409 30.1271 81.3409C31.0275 81.3409 31.9104 81.3843 32.8141 81.3843" stroke="white" stroke-width="0.5" stroke-linecap="round"/>
<path d="M35.5015 81.731C34.9019 81.731 34.3024 81.731 33.7029 81.731C33.4274 81.731 33.1917 81.6952 32.9252 81.6468C32.655 81.5976 32.3333 81.6444 32.0584 81.6444C31.4942 81.6444 30.93 81.6444 30.3658 81.6444C29.8443 81.6444 29.3507 81.5143 28.8273 81.5143" stroke="white" stroke-width="0.5" stroke-linecap="round"/>
<path d="M21.2554 69.9717C21.0815 69.7869 21.1651 69.4424 21.1651 69.2073C21.1651 68.9542 21.1651 68.7011 21.1651 68.4479C21.1651 68.1745 21.2682 67.8755 21.2078 67.6033C21.1626 67.3999 21.1832 67.6224 21.1551 67.661C21.0787 67.7661 21.0707 68.0117 21.0298 68.1447C20.9312 68.4652 20.7762 68.8183 20.7591 69.1597C20.7534 69.2746 20.7591 69.9089 20.7591 69.5106C20.7591 69.1657 20.7289 68.8067 20.7616 68.463C20.7751 68.3214 20.8629 68.1739 20.8945 68.0319C20.9473 67.7943 21.0749 67.6195 21.0749 67.3778C21.0749 67.1822 21.0119 66.8407 21.12 66.6785" stroke="white" stroke-width="0.5" stroke-linecap="round"/>
<path d="M22.8486 17.8259C22.9334 17.8153 22.7248 17.5961 22.6957 17.5498C22.6428 17.4658 22.6574 17.3667 22.6574 17.2716C22.6574 17.1301 22.9133 17.2917 22.9548 17.3374C23.0037 17.3912 22.7885 17.4436 22.9081 17.4436C23.1382 17.4436 22.8865 17.4115 22.7934 17.3672C22.5807 17.2659 22.8758 17.2907 22.9633 17.2907C23.1508 17.2907 22.9761 17.3042 22.9059 17.2886C22.7412 17.252 22.9925 17.2142 23.0397 17.2142" stroke="white" stroke-width="0.5" stroke-linecap="round"/>
<path d="M22.8869 16.8319C23.04 16.8319 23.1514 16.9002 23.3075 16.9084C23.4574 16.9163 23.6018 16.9466 23.7578 16.9466C24.0537 16.9466 24.3496 16.9466 24.6456 16.9466C25.375 16.9466 26.1162 16.9084 26.8544 16.9084C27.5569 16.9084 28.2472 16.9848 28.9465 16.9848C29.7076 16.9848 30.4687 16.9848 31.2297 16.9848C32.1126 16.9848 32.9954 16.9848 33.8783 16.9848C34.1912 16.9848 34.5041 16.9848 34.817 16.9848C35.1779 16.9848 35.5286 16.8701 35.8854 16.8701C37.1302 16.8701 38.3518 16.9084 39.5938 16.9084" stroke="white" stroke-width="0.5" stroke-linecap="round"/>
<path d="M40.3582 17.5965C40.3582 17.782 40.3582 17.9675 40.3582 18.153C40.3582 18.208 40.3479 18.0429 40.3348 17.9894C40.2936 17.82 40.2184 17.662 40.2074 17.4861C40.1854 17.1333 40.1603 17.3752 40.1862 17.5923C40.1903 17.6271 40.2053 18.0247 40.2053 17.8641C40.2053 17.7847 40.2053 17.5876 40.2053 17.7961C40.2053 17.9911 40.2222 18.4194 40.1756 17.9703C40.1655 17.8731 40.1671 17.5795 40.1671 17.6772C40.1671 17.803 40.1743 17.9229 40.1968 18.0468C40.2188 18.1678 40.2053 18.0383 40.2053 17.9894C40.2053 17.8449 40.1883 17.6891 40.2074 17.5455C40.2186 17.4613 40.3346 17.4784 40.3964 17.4818C40.5032 17.4877 40.5066 17.7436 40.5281 17.8238C40.5566 17.9295 40.4347 18.1273 40.4347 17.9937C40.4347 17.8702 40.4617 17.5905 40.5026 17.8726C40.5247 18.0247 40.5494 18.4851 40.5494 18.3314C40.5494 18.2261 40.5677 17.8375 40.5026 17.7579C40.4489 17.6922 40.3342 17.9745 40.32 18.017" stroke="white" stroke-width="0.5" stroke-linecap="round"/>
<path d="M58 15.5C57.6 20.7 57.8333 39.3333 58 48C58 54 57 69.5 56.5 76.5M56.5 76.5C56.5 76.5 57 79.1667 57 79C56.6667 78.1667 57.5 81 56.5 76.5Z" stroke="white"/>
<path d="M57.5 45.5C56.5 66.5 56.5 66.5 56.5 67.5" stroke="white"/>
<path d="M57.2632 45.7467C57.2632 45.4529 57.2951 45.1676 57.2951 44.8689C57.2951 44.6232 57.359 44.4025 57.359 44.1507C57.359 43.5226 57.3909 42.8853 57.3909 42.2498C57.3909 41.9153 57.3909 41.5807 57.3909 41.2462C57.3909 41.0704 57.3757 40.8973 57.4476 40.7355C57.4982 40.6217 57.5186 40.4601 57.5186 40.3365C57.5186 39.7509 57.4866 39.1837 57.4866 38.5969" stroke="white" stroke-width="0.5" stroke-linecap="round"/>
<path d="M56.4648 67.3555C56.4648 67.2999 56.4648 67.1332 56.4648 67.1888C56.4648 67.3669 56.4511 67.5419 56.4329 67.719C56.4102 67.9411 56.3372 68.1601 56.3372 68.384C56.3372 68.4383 56.3372 68.4925 56.3372 68.3999C56.3372 68.1588 56.3691 67.9198 56.3691 67.6782C56.3691 67.5209 56.35 67.3925 56.3123 67.242C56.2931 67.1649 56.2828 67.1168 56.2662 67.242C56.2438 67.4116 56.2414 67.5784 56.2414 67.7492C56.2414 67.8255 56.2342 67.9079 56.1918 67.7988C56.1486 67.6877 56.0126 67.4514 56.0889 67.6995C56.1681 67.9567 56.1175 68.2672 56.1474 68.5365C56.1565 68.6184 56.2075 68.682 56.2095 68.767C56.2113 68.8455 56.205 68.9101 56.2343 68.9833C56.2957 69.1369 56.2733 69.3661 56.2733 69.5277C56.2733 69.8345 56.3571 70.7451 56.2804 70.448C56.2262 70.2378 56.3181 69.9948 56.3336 69.7849C56.3493 69.5731 56.3372 69.357 56.3372 69.1447C56.3372 68.945 56.3744 68.8082 56.4578 68.6322C56.4728 68.6005 56.4648 68.5547 56.4648 68.5205C56.4648 68.4216 56.4648 68.7402 56.4648 68.7493C56.4648 69.1114 56.5166 69.5134 56.4187 69.8629C56.3585 70.0779 56.3691 70.3687 56.3691 70.5952C56.3691 70.8292 56.2733 71.0572 56.2733 71.2957C56.2733 71.7485 56.2414 72.2057 56.2414 72.654C56.2414 72.787 56.2414 72.92 56.2414 73.053C56.2414 73.187 56.1776 73.2933 56.1776 73.42C56.1776 73.6576 56.1776 73.8937 56.1776 74.1258C56.1776 74.5502 56.1776 74.9746 56.1776 75.399" stroke="white" stroke-width="0.5" stroke-linecap="round"/>
<path d="M56.3692 68.9195C56.3692 68.7237 56.4197 68.5724 56.5288 68.4088" stroke="white" stroke-width="0.5" stroke-linecap="round"/>
<path d="M57.2949 69.9409C57.2949 70.6397 57.0396 71.3216 57.0396 72.0156C57.0396 72.5795 57.0396 73.1434 57.0396 73.7073C57.0396 74.5046 57.0396 75.2905 57.0396 76.087C57.0396 76.3212 57.0662 76.5716 57.1282 76.7963C57.1752 76.9667 57.1353 77.2002 57.1353 77.3779C57.1353 77.5213 57.159 77.6519 57.1672 77.7929C57.1707 77.8524 57.1939 77.5977 57.1832 77.5375C57.1499 77.351 57.1005 77.1725 57.0644 76.9878C56.9827 76.5704 56.9757 76.1609 56.9757 75.7324C56.9757 75.3155 57.1274 74.9124 57.1353 74.4911C57.1437 74.0493 57.1353 73.6066 57.1353 73.1647C57.1353 72.9913 57.1992 72.8293 57.1992 72.654C57.1992 72.4625 57.1992 72.271 57.1992 72.0795C57.1992 71.7709 57.1992 71.4624 57.1992 71.1538C57.1992 71.1054 57.1992 70.9599 57.1992 71.0084C57.1992 71.1834 57.1992 71.3583 57.1992 71.5333C57.1992 71.8815 57.1672 72.2274 57.1672 72.5742C57.1672 73.6423 57.1672 74.7272 57.1672 75.782C57.1672 76.1283 57.1353 76.4697 57.1353 76.8176C57.1353 76.9937 57.1353 77.1699 57.1353 77.346C57.1353 77.5053 57.1287 77.7477 57.1992 77.8886" stroke="white" stroke-width="0.5" stroke-linecap="round"/>
<line y1="-0.5" x2="18" y2="-0.5" transform="matrix(-1 0 0 1 75 79)" stroke="white"/>
<path d="M74.8036 79.4001C74.402 79.4001 73.9898 79.4197 73.5956 79.5004C73.3495 79.5507 73.6728 79.5355 73.7509 79.5355C74.0546 79.5355 74.3612 79.5503 74.6607 79.4904C75.1393 79.3946 74.1497 79.3009 74.0417 79.2874C73.8466 79.263 73.6503 79.2439 73.4552 79.2222C73.2582 79.2003 73.6598 79.2197 73.7109 79.2197C74.1957 79.2197 73.2024 79.2197 73.6156 79.2197C73.9281 79.2197 74.8654 79.2197 74.5529 79.2197C74.4218 79.2197 74.2906 79.2197 74.1595 79.2197C74.049 79.2197 74.3774 79.1776 74.4878 79.1746C74.5926 79.1717 74.8431 79.1282 74.8938 79.2422C74.9183 79.2975 74.9969 79.5815 74.8286 79.4853C74.7507 79.4408 74.8312 79.0594 74.8587 78.9941C74.919 78.8509 74.8825 78.7517 74.8512 78.6107C74.8336 78.5315 74.9244 78.7673 74.8838 78.8588C74.8236 78.9941 74.9037 79.164 74.7133 79.1746C74.2788 79.1987 73.7933 79.3168 73.3675 79.4177C73.0804 79.4857 72.7513 79.4452 72.4577 79.4452C72.0367 79.4452 71.6156 79.4452 71.1946 79.4452C71.0292 79.4452 70.8638 79.4452 70.6984 79.4452C70.441 79.4452 70.8434 79.4762 70.9114 79.4929C71.327 79.5946 71.7627 79.6135 72.1846 79.6909C72.5136 79.7512 72.8366 79.761 73.1695 79.761C73.4019 79.761 73.4943 79.7376 73.5555 79.4929C73.5657 79.4518 72.1776 79.4452 72.0166 79.4452C71.9608 79.4452 71.4953 79.4452 71.751 79.4452C72.379 79.4452 72.9454 79.3376 73.5505 79.1746C73.6501 79.1477 74.4468 78.9941 74.0116 78.9941C73.4991 78.9941 73.0408 79.1239 72.5354 79.1721C71.9822 79.2248 71.4789 79.3099 70.9189 79.3099C70.7453 79.3099 71.1434 79.3099 71.1846 79.3099C71.3655 79.3099 71.5318 79.3028 71.7059 79.3525C71.8762 79.4012 71.3515 79.3587 71.1746 79.3525C70.9369 79.3442 70.6875 79.3194 70.4553 79.2648C70.2288 79.2115 70.9151 79.2779 70.9791 79.2874C71.1863 79.3179 71.3813 79.355 71.5906 79.355C71.7127 79.355 71.7362 79.3615 71.5856 79.345C71.1954 79.3022 70.8045 79.3099 70.4127 79.3099C70.1548 79.3099 70.2583 79.3146 70.4703 79.3074C70.9056 79.2926 71.3749 79.2735 71.8061 79.2097C72.0399 79.175 71.9071 79.1343 71.741 79.1295C71.2885 79.1163 70.8525 78.9975 70.3976 78.9941C70.1403 78.9922 69.883 78.9941 69.6257 78.9941C69.2113 78.9941 70.4558 78.9839 70.8688 79.0192C71.1023 79.0391 71.7973 79.1295 71.563 79.1295C71.1412 79.1295 70.7192 79.1266 70.2974 79.1295C69.9299 79.1319 69.5834 79.221 69.2197 79.2548C69.0304 79.2723 68.7853 79.2153 68.6032 79.2673C68.522 79.2905 68.9207 79.3931 68.9465 79.3951C69.2649 79.4196 69.5862 79.4724 69.9039 79.4878C70.0771 79.4963 70.2518 79.4904 70.4252 79.4904C70.8098 79.4904 70.332 79.4623 70.1921 79.4352C69.6983 79.3395 68.1854 79.3099 68.6884 79.3099C68.9521 79.3099 69.2171 79.3025 69.4803 79.3199C69.7514 79.3379 70.1607 79.3393 70.4127 79.4653C70.6215 79.5697 69.9448 79.4563 69.7134 79.4252C69.4786 79.3936 69.243 79.4001 69.0067 79.4001C68.4996 79.4001 67.9925 79.4001 67.4854 79.4001C66.8154 79.4001 66.1454 79.4001 65.4754 79.4001C64.8652 79.4001 64.2498 79.355 63.6358 79.355C62.9729 79.355 62.3156 79.3762 61.6584 79.2874C61.2071 79.2264 60.7351 79.0843 60.2875 79.0843C60.1271 79.0843 59.9667 79.0843 59.8063 79.0843C59.4443 79.0843 59.8168 79.0843 59.9717 79.0843C60.9413 79.0843 61.8849 79.1746 62.8514 79.1746C64.088 79.1746 65.3476 79.1295 66.5932 79.1295C67.0454 79.1295 67.499 79.0843 67.944 79.0843C68.2695 79.0843 68.5445 79.0209 68.8713 79.1069C68.9408 79.1252 69.2532 79.1295 69.1821 79.1295C68.2766 79.1295 67.4218 79.2416 66.533 79.4252C65.9066 79.5546 65.2741 79.3099 64.6534 79.3099" stroke="white" stroke-width="0.5" stroke-linecap="round"/>
<line y1="-0.5" x2="21" y2="-0.5" transform="matrix(0 1 1 0 108 82)" stroke="white"/>
<line y1="-0.5" x2="4" y2="-0.5" transform="matrix(-1 0 0 1 106 83)" stroke="white"/>
<line y1="-0.5" x2="8" y2="-0.5" transform="matrix(0 1 1 0 103 83)" stroke="white"/>
<line y1="-0.5" x2="12" y2="-0.5" transform="matrix(-1 0 0 1 105 91)" stroke="white"/>
<line y1="-0.5" x2="4" y2="-0.5" transform="matrix(0 1 1 0 95 89)" stroke="white"/>
<line y1="-0.5" x2="4" y2="-0.5" transform="matrix(0 1 1 0 105 91)" stroke="white"/>
<line y1="-0.5" x2="9" y2="-0.5" transform="matrix(-1 0 0 1 104 95)" stroke="white"/>
<line y1="-0.5" x2="3" y2="-0.5" transform="matrix(-1 0 0 1 107 103)" stroke="white"/>
<line y1="-0.5" x2="2" y2="-0.5" transform="matrix(0 1 1 0 105 102)" stroke="white"/>
<line y1="-0.5" x2="20" y2="-0.5" transform="matrix(-1 0 0 1 77 16)" stroke="white"/>
<path d="M79.5 155.5L77 103.5H58L61.5 154.5L62 155C64.1667 155.167 69.4 155.8 73 157H78.5" stroke="white"/>
<line y1="-0.5" x2="19" y2="-0.5" transform="matrix(-1 0 0 1 42 156)" stroke="white"/>
<path d="M40.4126 151.398C40.4126 151.425 40.4046 151.45 40.397 151.476C40.3723 151.56 40.3639 151.646 40.3472 151.732C40.3321 151.81 40.3192 151.89 40.3192 151.969C40.3192 152.026 40.3132 152.086 40.3213 152.142C40.3311 152.209 40.3518 152.276 40.356 152.345C40.3687 152.547 40.3636 152.739 40.3426 152.941C40.3067 153.283 40.3005 153.619 40.3005 153.963C40.3005 154.197 40.2818 154.429 40.2818 154.662C40.2818 154.731 40.2803 154.797 40.272 154.863C40.2678 154.897 40.2539 154.935 40.2637 154.97C40.2676 154.983 40.3405 154.975 40.3509 154.975C40.3963 154.975 40.3379 155.015 40.3197 155.02C40.2795 155.033 40.2394 155.031 40.1978 155.031" stroke="white" stroke-width="0.5" stroke-linecap="round"/>
<path d="M41.2061 156.077C41.0888 156.11 40.9636 156.118 40.8435 156.137C40.6971 156.161 40.5489 156.193 40.4003 156.198C40.2693 156.202 40.1376 156.198 40.0065 156.198C39.9255 156.198 39.8422 156.203 39.7616 156.193C39.7 156.185 39.6465 156.17 39.5831 156.17C39.3768 156.17 39.1705 156.17 38.9642 156.17C38.8514 156.17 38.7382 156.174 38.6264 156.157C38.5794 156.149 38.5225 156.138 38.4811 156.112C38.4487 156.092 38.459 156.068 38.4946 156.067C38.5783 156.065 38.6616 156.068 38.7447 156.078C38.9922 156.109 39.2358 156.123 39.4851 156.123C39.7317 156.123 39.9775 156.142 40.2239 156.142C40.5992 156.142 40.9745 156.142 41.3499 156.142C41.4111 156.142 41.4539 156.117 41.5143 156.114C41.5402 156.113 41.5662 156.101 41.5844 156.086C41.6046 156.07 41.6382 156.078 41.6591 156.062C41.7041 156.027 41.6929 156.039 41.6243 156.039C41.4591 156.039 41.2913 156.03 41.1262 156.04C41.0613 156.044 40.999 156.058 40.9332 156.058C40.8422 156.059 40.7513 156.058 40.6603 156.058C40.3872 156.058 40.1271 155.983 39.855 155.972C39.6931 155.965 39.5304 155.961 39.3683 155.966C39.2307 155.97 39.097 156.004 38.96 156.016C38.836 156.025 38.7099 156.03 38.5854 156.03C38.3924 156.03 38.2016 156.025 38.0089 156.016C37.8604 156.008 37.7062 156.027 37.5586 156.009C37.5043 156.003 37.4544 155.98 37.3988 155.976C37.2944 155.968 37.1921 155.953 37.088 155.942C37.0233 155.935 36.9584 155.941 36.8939 155.936C36.786 155.926 36.6851 155.899 36.5753 155.899C36.4603 155.899 36.3453 155.899 36.2303 155.899C36.0126 155.899 35.7999 155.93 35.5838 155.948C35.3255 155.969 35.0648 156.005 34.805 155.992C34.5487 155.979 34.2923 155.962 34.0355 155.955C34.0092 155.955 33.9419 155.931 33.9307 155.909" stroke="white" stroke-width="0.5" stroke-linecap="round"/>
<path d="M36.499 155.031C36.4762 155.019 36.4513 155.015 36.4259 155.011C36.3004 154.99 36.1734 154.976 36.0471 154.962C35.6205 154.912 35.1857 154.908 34.7567 154.909C34.5511 154.91 34.3461 154.915 34.1413 154.935C33.9261 154.956 33.7127 154.993 33.4974 155.014C33.192 155.044 32.8806 155.036 32.5765 154.997C32.2708 154.958 31.9742 154.929 31.6654 154.928C31.4226 154.927 31.1861 154.925 30.9457 154.886C30.7886 154.861 30.6324 154.826 30.4834 154.769C30.4383 154.752 30.3972 154.729 30.363 154.695" stroke="white" stroke-width="0.5" stroke-linecap="round"/>
<path d="M33.0435 154.919C32.1349 154.919 31.2257 154.912 30.3174 154.895C30.0645 154.891 29.8117 154.891 29.5588 154.891C29.4228 154.891 29.2864 154.901 29.1583 154.853" stroke="white" stroke-width="0.5" stroke-linecap="round"/>
<path d="M30.7646 154.891C30.4451 154.874 30.1318 154.865 29.8131 154.9C29.5806 154.926 29.351 154.956 29.1173 154.97C28.9395 154.98 28.765 155.002 28.5886 155.021" stroke="white" stroke-width="0.5" stroke-linecap="round"/>
<path d="M34.3789 154.937C33.5947 154.82 32.8055 154.825 32.0145 154.825C31.5244 154.825 31.0297 154.845 30.5404 154.816" stroke="white" stroke-width="0.5" stroke-linecap="round"/>
<path d="M34.0054 154.835C32.8513 154.835 31.6984 154.854 30.5446 154.875C30.2596 154.88 29.9715 154.891 29.6864 154.877C29.6228 154.874 29.5721 154.863 29.5131 154.844" stroke="white" stroke-width="0.5" stroke-linecap="round"/>
<path d="M32.5391 154.825C31.3575 154.75 30.1782 154.795 29.0056 154.955C28.6018 155.01 28.1943 155.087 27.7853 155.087" stroke="white" stroke-width="0.5" stroke-linecap="round"/>
<path d="M30.2231 154.732C29.427 154.76 28.6286 154.897 27.8447 155.033C27.6267 155.071 27.4083 155.113 27.1878 155.133" stroke="white" stroke-width="0.5" stroke-linecap="round"/>
<path d="M30.4097 154.657C30.1368 154.665 29.8743 154.707 29.6049 154.748C29.3471 154.787 29.0873 154.811 28.8292 154.849C28.4347 154.906 28.0332 154.972 27.6338 154.975C27.4716 154.976 27.3088 154.978 27.1466 154.974C26.985 154.97 26.8243 154.953 26.6625 154.957C26.5439 154.959 26.4295 154.984 26.3097 154.984" stroke="white" stroke-width="0.5" stroke-linecap="round"/>
<path d="M26.8047 155.021C26.5563 155.008 26.3117 154.984 26.0627 154.984C25.7864 154.984 25.5095 154.989 25.2336 154.973C24.9935 154.958 24.7571 154.909 24.5165 154.909" stroke="white" stroke-width="0.5" stroke-linecap="round"/>
<path d="M25.1611 154.844C24.6188 154.844 24.0784 154.881 23.5361 154.881" stroke="white" stroke-width="0.5" stroke-linecap="round"/>
<path d="M23.396 154.797C23.232 154.797 23.0681 154.797 22.9041 154.797C22.8603 154.797 22.8109 154.803 22.7671 154.795C22.7359 154.79 22.7891 154.788 22.7962 154.788C22.8814 154.788 22.9623 154.775 23.0307 154.849C23.0799 154.902 23.0834 154.964 23.1065 155.028C23.1496 155.146 23.0545 155.29 23.0177 155.401C23.0099 155.424 23.0032 155.447 22.9897 155.468C22.989 155.469 22.9662 155.496 22.9731 155.497C23.0321 155.51 23.0892 155.518 23.1272 155.572C23.2023 155.68 22.9864 155.772 22.9207 155.688C22.908 155.671 22.8834 155.585 22.9031 155.565C22.9326 155.536 23.0229 155.632 23.0328 155.651C23.0584 155.701 23.0546 155.845 23.0203 155.894C22.9898 155.938 22.9866 155.956 22.9851 156.007C22.9837 156.055 22.9297 156.044 22.9057 156.019C22.8772 155.989 22.864 155.937 22.8496 155.899C22.8315 155.85 22.808 155.801 22.7931 155.752C22.7812 155.712 22.7911 155.659 22.7749 155.623C22.7429 155.553 22.7796 155.441 22.7796 155.365C22.7796 155.273 22.8225 155.147 22.9197 155.115" stroke="white" stroke-width="0.5" stroke-linecap="round"/>
<path d="M25.0397 153.779C25.0006 153.802 25.0786 154.02 25.0874 154.048C25.1221 154.159 25.1571 154.27 25.2026 154.377C25.233 154.449 25.2728 154.516 25.3001 154.589C25.3135 154.625 25.3572 154.725 25.3582 154.687C25.3597 154.63 25.3479 154.57 25.3479 154.512C25.3479 154.42 25.3493 154.328 25.3333 154.238C25.3191 154.157 25.3524 154.268 25.3603 154.287C25.4171 154.424 25.4864 154.553 25.5476 154.688C25.5526 154.699 25.5298 154.671 25.5238 154.661C25.4793 154.584 25.4601 154.494 25.4433 154.407C25.4246 154.311 25.4061 154.214 25.3914 154.116C25.3873 154.089 25.389 154.058 25.378 154.031C25.3501 153.965 25.422 154.168 25.4501 154.234C25.4784 154.301 25.5104 154.375 25.5232 154.448C25.5285 154.477 25.456 154.422 25.4553 154.422C25.3486 154.334 25.3339 154.192 25.2918 154.07C25.2819 154.041 25.265 154.013 25.2638 153.983C25.2602 153.893 25.3137 154.088 25.3198 154.106C25.3401 154.165 25.3469 154.265 25.4226 154.284" stroke="white" stroke-width="0.5" stroke-linecap="round"/>
<path d="M24.7877 153.91C24.6866 153.91 24.7733 154.078 24.7918 154.129C24.8338 154.244 24.879 154.358 24.9299 154.469C24.954 154.521 24.9703 154.567 24.96 154.483C24.953 154.426 24.941 154.371 24.9319 154.315C24.9302 154.304 24.9227 154.241 24.9382 154.289C24.9628 154.367 24.9932 154.445 24.9932 154.526" stroke="white" stroke-width="0.5" stroke-linecap="round"/>
<path d="M24.9838 154.545C24.9838 154.659 25.1298 154.732 25.2173 154.769" stroke="white" stroke-width="0.5" stroke-linecap="round"/>
</svg>
