<svg width="237" height="108" viewBox="0 0 237 108" fill="none" xmlns="http://www.w3.org/2000/svg">
<rect x="36" y="62" width="157" height="43" fill="black"/>
<path d="M2.66697 93.0671C1.78952 92.7443 1.79568 91.5011 2.67628 91.1868L36.1852 79.2265C36.8384 78.9934 37.5247 79.4796 37.5213 80.1731L37.4012 104.418C37.3978 105.111 36.7067 105.591 36.0559 105.351L2.66697 93.0671Z" fill="black"/>
<path d="M2.66697 75.5969C1.78952 75.274 1.79568 74.0309 2.67628 73.7166L36.1852 61.7563C36.8384 61.5231 37.5247 62.0094 37.5213 62.7029L37.4012 86.9475C37.3978 87.641 36.7067 88.1206 36.0559 87.8811L2.66697 75.5969Z" fill="black"/>
<rect x="2.5791" y="75.2223" width="23.2089" height="17.4701" fill="black"/>
<path d="M233.817 92.9361C234.755 92.6418 234.748 91.3116 233.806 91.0253L193.878 78.8785C193.233 78.6824 192.584 79.1661 192.588 79.8393L192.729 104.468C192.733 105.141 193.387 105.619 194.029 105.418L233.817 92.9361Z" fill="black"/>
<path d="M233.878 75.2494C234.809 74.9521 234.802 73.631 233.867 73.3415L193.268 60.773C192.623 60.5732 191.97 61.0571 191.974 61.7324L192.119 87.2099C192.123 87.8852 192.781 88.3636 193.425 88.1584L233.878 75.2494Z" fill="black"/>
<rect width="27.8507" height="18.1832" transform="matrix(-1 0 0 1 233.905 74.8844)" fill="black"/>
<path d="M92.7466 50.2244C96.7512 56.541 95.7461 64.3569 90.5018 67.6817C85.2574 71.0064 77.7597 68.581 73.7552 62.2644C69.7506 55.9477 70.7557 48.1318 76 44.8071C81.2443 41.4823 88.7421 43.9077 92.7466 50.2244Z" fill="black"/>
<rect x="84" y="46" width="46" height="11" fill="black"/>
<rect x="72" y="38" width="10" height="12" fill="black"/>
<path fill-rule="evenodd" clip-rule="evenodd" d="M156.263 35.7061C156.263 35.7059 156.263 35.7056 156.264 35.7054C156.973 34.6016 156.609 33.1028 155.451 32.3577C154.292 31.6125 152.777 31.9032 152.067 33.007C152.067 33.0072 152.067 33.0075 152.067 33.0077L156.263 35.7061Z" fill="black"/>
<path fill-rule="evenodd" clip-rule="evenodd" d="M141.493 59.0293C141.493 59.0296 141.493 59.0298 141.493 59.03C140.79 60.1385 139.277 60.4393 138.114 59.7019C136.95 58.9645 136.576 57.4682 137.279 56.3597C137.279 56.3594 137.279 56.3592 137.279 56.359L141.493 59.0293Z" fill="black"/>
<path d="M152.269 32.6895L156.492 35.3658L141.505 59.017L139.393 57.6788L137.282 56.3406L152.269 32.6895Z" fill="black"/>
<line x1="3.8328" y1="74.5288" x2="34.8328" y2="63.5288" stroke="white"/>
<line x1="3.5" y1="74" x2="3.5" y2="91" stroke="white"/>
<line x1="25.3201" y1="94.6159" x2="37.3201" y2="104.616" stroke="white"/>
<path d="M24.9998 80.9998L53 67" stroke="white"/>
<line x1="25.5" y1="96" x2="25.5" y2="80" stroke="white"/>
<line x1="25.8892" y1="80.4876" x2="3.88919" y2="75.4876" stroke="white"/>
<line x1="25.6815" y1="95.6147" x2="3.15535" y2="90.5578" stroke="white"/>
<line x1="233.028" y1="75.4757" x2="192.846" y2="62.4757" stroke="white"/>
<path d="M233.499 74.9631L234 91" stroke="white"/>
<line x1="212.375" y1="95.4615" x2="193.192" y2="103.461" stroke="white"/>
<path d="M212 80.0001L181.835 71" stroke="white"/>
<line x1="211.5" y1="96" x2="211.5" y2="79" stroke="white"/>
<line y1="-0.5" x2="23.0868" y2="-0.5" transform="matrix(0.975715 -0.219042 -0.219042 -0.975715 211.391 95.1269)" stroke="white"/>
<line y1="-0.5" x2="23.0868" y2="-0.5" transform="matrix(0.975715 -0.219042 -0.219042 -0.975715 211.391 79.1269)" stroke="white"/>
<line x1="34.9969" y1="104.5" x2="193.997" y2="103.5" stroke="white"/>
<path d="M44.0039 71.874L183 72" stroke="white"/>
<line x1="34.103" y1="63.5107" x2="53.103" y2="67.5107" stroke="white"/>
<ellipse cx="84" cy="20.5" rx="22" ry="17.5" fill="black"/>
<path d="M62.6843 24.2003C62.6843 24.4227 62.6783 24.646 62.6843 24.8684C62.6872 24.9764 62.7556 25.0609 62.7585 25.1653C62.7617 25.2764 62.7585 25.3882 62.7585 25.4994C62.7585 25.6819 62.905 25.7344 62.973 25.8705C62.9992 25.923 62.9756 25.9996 62.9812 26.0561C62.9908 26.1512 63.0458 26.2475 63.0575 26.353C63.0782 26.5389 63.1228 26.7308 63.1297 26.9181C63.1357 27.0804 63.1135 27.2468 63.1483 27.4068C63.2354 27.8074 63.1282 28.2452 63.1689 28.6522C63.1828 28.7908 63.2017 28.9557 63.2596 29.0832C63.3317 29.2418 63.2911 29.4256 63.3607 29.5822C63.4259 29.7291 63.4106 29.851 63.4473 30.0132C63.5088 30.2858 63.5864 30.6428 63.703 30.8978C64.0904 31.7453 64.3363 32.6906 64.7711 33.5167C64.8288 33.6262 64.9561 33.7028 65.0144 33.8136C65.1004 33.9769 65.1554 34.0487 65.299 34.1662C65.4238 34.2683 65.5398 34.3678 65.6537 34.4817C65.7775 34.6055 65.9366 34.6545 66.0847 34.7456C66.243 34.8431 66.4092 34.9849 66.5445 35.1127C66.6474 35.2099 66.8277 35.1384 66.9363 35.2075C67.1625 35.3515 67.4168 35.7437 67.7137 35.7437C67.8293 35.7437 67.9518 35.7925 68.0663 35.8179C68.2257 35.8533 68.4986 35.9229 68.6313 36.0035C68.722 36.0586 68.8264 36.1258 68.92 36.1726C69.0013 36.2132 69.1279 36.1921 69.1984 36.2468C69.3853 36.3922 69.6088 36.36 69.819 36.42C70.1958 36.5277 70.6022 36.5409 70.9697 36.6634C71.1385 36.7196 71.2966 36.6802 71.4646 36.7108C71.6304 36.7409 71.7943 36.7736 71.9636 36.783C72.082 36.7895 72.2144 36.8509 72.3348 36.8572C72.5385 36.8679 72.7452 36.8572 72.9493 36.8572C73.3531 36.8572 73.7371 36.9314 74.1349 36.9314C74.2774 36.9314 74.5931 36.9491 74.7103 37.0428C74.8969 37.1921 75.4116 37.1913 75.6547 37.1913C76.0314 37.1913 76.3924 37.2655 76.7703 37.2655C76.9543 37.2655 77.122 37.3026 77.3085 37.3026C77.3631 37.3026 77.7444 37.3026 77.5312 37.3026C77.3612 37.3026 77.2076 37.1913 77.028 37.1913C76.8736 37.1913 76.747 37.1116 76.6032 37.0717C76.3861 37.0113 76.1013 36.9753 75.9021 36.8758C75.7219 36.7857 75.7127 36.6716 75.4815 36.6716C75.2947 36.6716 75.097 36.692 74.9123 36.6634C74.7744 36.642 74.6385 36.5808 74.4999 36.5623C74.3471 36.5419 74.2153 36.5047 74.069 36.4489C73.9594 36.4072 73.9452 36.3412 73.8195 36.3376C73.6257 36.332 73.4676 36.1936 73.2709 36.1891C73.0397 36.1838 72.7815 36.1285 72.5595 36.0592C72.3823 36.0038 72.1722 36.0546 72.0007 35.9581C71.8531 35.8751 72.3308 35.8748 72.4997 35.8633C73.0237 35.8276 73.5562 35.855 74.0813 35.855C74.3469 35.855 74.6251 35.8306 74.8897 35.8571C75.3637 35.9045 73.9623 36.0852 73.4895 36.1437C73.4556 36.1479 72.8035 36.1891 73.0235 36.1891C73.459 36.1891 73.8759 36.2762 74.3082 36.2984C74.6221 36.3145 74.2607 36.3004 74.1514 36.3004C74.0188 36.3004 73.8861 36.3004 73.7535 36.3004C73.7429 36.3004 73.7121 36.3056 73.7225 36.3066C74.0528 36.3397 74.3843 36.3597 74.7144 36.3953C75.0679 36.4334 74.9775 36.4382 74.7639 36.4654C74.5046 36.4985 74.248 36.5497 73.9885 36.5809C73.7035 36.6151 73.4653 36.5797 73.1885 36.5046C73.0611 36.47 72.9162 36.4485 72.7946 36.3953C72.6993 36.3536 73.002 36.3747 73.106 36.3747C73.6449 36.3747 74.1837 36.3747 74.7226 36.3747C75.4173 36.3747 73.3321 36.3592 72.6399 36.3004C72.4146 36.2813 71.694 36.3267 71.5038 36.0942C71.3923 35.958 72.3659 35.8307 72.4296 35.822C72.74 35.78 73.0527 35.7548 73.3658 35.7457C73.4576 35.7431 73.6827 35.7472 73.44 35.7437C73.0007 35.7374 72.561 35.7109 72.1244 35.6612C72.0618 35.6541 71.4477 35.6276 71.3903 35.5292C71.3646 35.485 71.4919 35.5156 71.5429 35.5127C71.6747 35.5053 71.9116 35.4954 72.0337 35.4921C72.5458 35.4783 73.0634 35.5085 73.5741 35.4632C74.0757 35.4188 73.4602 35.322 73.3142 35.2962C73.1461 35.2665 70.9326 35.0186 70.9326 35.1581C70.9326 35.2825 72.2306 35.4102 72.3966 35.4303C72.5385 35.4474 72.948 35.4662 72.576 35.3024C71.9873 35.0431 71.3268 34.8861 70.681 34.9292C70.1205 34.9665 71.7826 35.1693 72.343 35.2075C72.4597 35.2155 72.5842 35.2657 72.6936 35.224C72.7983 35.1842 72.4771 35.1658 72.3678 35.1416C71.8127 35.0184 71.214 34.8538 70.6397 34.8982C70.5756 34.9032 70.3512 34.9568 70.5325 35.0178C70.8264 35.1168 71.1542 35.1127 71.4605 35.1127C71.6949 35.1127 71.9078 35.065 71.7636 34.7766C71.5891 34.4277 71.16 34.3985 70.8191 34.4095C70.8096 34.4098 70.3474 34.4536 70.5098 34.5456C70.7253 34.6677 71.0039 34.723 71.2439 34.7683C71.3706 34.7922 71.7609 34.8925 71.8811 34.7828C72.4024 34.3068 70.2827 33.1075 70.3325 34.1291C70.3458 34.4025 70.5836 34.4619 70.8233 34.4796C71.0727 34.4981 70.8304 34.0485 70.7511 33.9744C70.5321 33.7699 70.3069 33.8406 70.1531 34.0569C69.932 34.3679 70.126 34.4881 70.4748 34.5106C70.8634 34.5356 71.0443 34.186 70.7655 33.8961C70.4294 33.5465 70.0424 33.7619 69.7201 34.0116C69.4255 34.2397 69.2807 34.4867 69.7324 34.5766C69.9588 34.6216 70.7698 34.8039 70.6439 34.3394C70.5303 33.9206 69.9923 33.6861 69.5943 33.6672C69.1359 33.6454 69.4946 33.9335 69.7696 33.9497C69.9853 33.9624 70.1133 33.7905 69.9881 33.595C69.8738 33.4163 69.6205 33.3216 69.4231 33.2816C69.2628 33.2491 68.81 33.1925 68.6973 33.3764C68.5417 33.6303 69.0828 33.6839 69.2004 33.694C69.2616 33.6992 69.4333 33.733 69.4891 33.6857C69.5834 33.606 69.2793 33.2514 69.2458 33.2156C68.9825 32.9343 68.5314 32.6591 68.124 32.7434C67.81 32.8084 67.9326 33.2021 68.1158 33.3352C68.2801 33.4546 68.7783 33.6492 68.9159 33.3806C69.141 32.941 68.5091 32.399 68.1302 32.3372C67.891 32.2981 67.64 32.4173 67.6271 32.6815C67.6163 32.9016 68.0301 33.106 68.2189 32.9888C68.4446 32.8487 67.6946 32.3996 67.5796 32.3743C67.2626 32.3044 67.6835 32.9881 67.7302 33.0383C67.8797 33.1988 68.0709 33.3371 68.2931 33.3641C68.3161 33.3669 68.4219 33.3832 68.3447 33.3414C68.2056 33.2661 68.0587 33.204 67.9096 33.1517C67.8852 33.1431 67.5777 33.032 67.7529 33.1331C68.0389 33.2981 68.3374 33.5167 68.6808 33.5167C68.7185 33.5167 68.7493 33.501 68.7262 33.4548C68.5664 33.1354 67.9564 32.9159 67.6621 32.7826C67.4058 32.6664 67.2053 32.5893 66.9383 32.5124C66.8013 32.473 66.6514 32.4358 66.8641 32.5372C67.3227 32.7558 67.8 32.9424 68.2684 33.1393C68.3674 33.1809 68.6776 33.3459 68.388 33.2073C68.3443 33.1864 67.8367 32.8569 68.0539 32.8156C68.2527 32.7777 69.1644 33.3 69.1015 33.4259C69.0765 33.4759 67.469 32.1863 67.3363 32.065C67.1904 31.9315 67.0383 31.7951 66.9363 31.6237C66.9325 31.6174 66.846 31.4813 66.9115 31.5123C67.0722 31.5884 67.2166 31.8156 67.326 31.9454C67.5009 32.1528 67.6816 32.3691 67.7879 32.6217C67.8973 32.8815 67.6748 32.6022 67.6436 32.564C67.2617 32.0961 66.8787 31.6248 66.528 31.1329C66.479 31.0642 66.25 30.8041 66.2641 30.6916C66.2816 30.5515 66.4585 30.8972 66.5445 31.0092C66.678 31.1829 66.8039 31.3639 66.8992 31.5618C66.9549 31.6776 66.9697 31.6871 66.895 31.5577C66.7214 31.2567 66.5092 30.9784 66.3053 30.6978C66.1483 30.4817 65.9772 30.0947 65.765 29.9287C65.7354 29.9055 65.8909 30.7324 65.8929 30.7391C66.0118 31.1341 66.1708 31.6455 66.5197 31.9082C66.8572 32.1624 66.6398 31.4242 66.6105 31.3515C66.3911 30.8078 66.0079 30.3344 65.6743 29.8586C65.5832 29.7286 65.3667 29.3433 65.3588 29.5018C65.3474 29.73 65.3612 29.965 65.3959 30.1905C65.4017 30.2278 65.5167 30.5779 65.4392 30.3163C65.3032 29.8572 65.0767 29.4186 64.8701 28.9884C64.8564 28.9599 64.4188 28.0493 64.5938 28.5553C64.6923 28.8403 64.977 29.696 64.9155 29.4008C64.8483 29.0786 64.6536 28.776 64.4824 28.5017C64.3963 28.3637 64.2177 27.9585 64.0535 27.8831C64.0319 27.8732 64.1126 28.3417 64.1154 28.3574C64.15 28.5525 64.1506 28.7665 64.2144 28.9554C64.2495 29.0595 64.2823 29.0484 64.2803 28.9348C64.2752 28.6319 64.2144 28.3362 64.1236 28.0481C64.0486 27.8098 63.9165 27.5689 63.8782 27.3202C63.8471 27.1178 64.0756 27.6793 64.1628 27.8645C64.1926 27.9278 64.2154 27.9998 64.1401 27.8913C64.0005 27.6903 63.881 27.4648 63.7855 27.2397C63.7081 27.0575 63.7236 26.9184 63.7236 27.215C63.7236 27.3508 63.7129 27.4924 63.7318 27.6274C63.7478 27.7409 63.7062 27.365 63.6947 27.3305C63.6755 27.2728 63.4231 26.6521 63.4328 26.8418C63.4427 27.0337 63.4861 27.2305 63.538 27.415C63.564 27.5073 63.5774 27.5378 63.6081 27.6233C63.6228 27.6642 63.6186 27.7777 63.6494 27.747C63.7201 27.6762 63.4848 27.0289 63.472 26.9139C63.4649 26.8497 63.4927 26.6623 63.4638 26.7201C63.3797 26.8882 63.3686 27.1497 63.3586 27.3305C63.3358 27.7418 63.2998 28.2217 63.5318 28.5842C63.6064 28.7007 63.5733 28.442 63.5731 28.4337C63.5668 28.23 63.5715 28.0051 63.5298 27.8047C63.5085 27.7026 63.4575 27.8669 63.4555 27.8749C63.391 28.1355 63.3882 28.4128 63.406 28.6791C63.4116 28.7619 63.6476 30.1945 63.8514 30.0833C63.9719 30.0176 63.7601 29.3385 63.7504 29.2997C63.6938 29.0747 63.634 28.8647 63.5545 28.6481C63.5363 28.5987 63.4892 28.4616 63.4741 28.512C63.4036 28.7469 63.5277 29.1825 63.5628 29.4111C63.6058 29.6915 63.6443 30.0163 63.7916 30.2668C63.9553 30.5451 63.9422 29.9981 63.9422 29.9369C63.9422 29.5624 63.9239 29.1861 63.8906 28.8131C63.8771 28.6617 63.8732 28.2168 63.8267 28.3615C63.7746 28.5235 63.7944 28.7452 63.7978 28.91C63.8074 29.3672 63.8824 29.8181 64.004 30.2586C64.0327 30.3624 64.104 30.7287 64.2432 30.7906C64.3568 30.8411 64.2889 30.084 64.2886 30.0813C64.2433 29.6097 64.1263 29.1697 63.9566 28.7285C63.9115 28.6112 63.7978 28.2605 63.7978 28.3862C63.7978 29.4004 64.2427 30.2782 64.7258 31.1453C64.7757 31.2349 64.8833 31.4975 64.9031 31.3969C64.9491 31.162 64.8993 30.868 64.8454 30.6421C64.7798 30.3677 64.4269 29.5983 64.569 29.8421C64.8329 30.2944 65.0088 30.7925 65.2866 31.2381C65.64 31.8049 65.2872 31.1151 65.198 30.9308C65.0273 30.5785 64.8503 30.2214 64.7608 29.8379C64.7566 29.8199 64.691 29.4126 64.7422 29.6647C64.9411 30.6434 65.3007 31.6024 65.7485 32.4939C65.7912 32.5787 65.8315 32.7832 65.9094 32.7289C66.0173 32.6537 65.877 32.466 65.8351 32.3413C65.6522 31.7958 65.4147 31.2671 65.2165 30.7267C65.1727 30.6071 65.127 30.5522 65.2227 30.737C65.4478 31.1714 65.6751 31.6059 65.9156 32.032C66.0057 32.1917 66.1518 32.5518 66.3259 32.6527C66.3497 32.6664 66.3557 32.6038 66.3568 32.5764C66.3669 32.3305 66.3169 32.0818 66.2352 31.8505C66.029 31.2667 65.688 30.7267 65.3238 30.2297C65.3131 30.2152 65.085 29.8578 65.0474 30.0813C64.9875 30.4378 65.146 30.8775 65.2495 31.2113C65.2811 31.3132 65.2995 31.4273 65.3691 31.5082C65.3939 31.537 65.3947 31.4349 65.3939 31.3969C65.3786 30.6695 65.0707 29.8679 64.6763 29.2606C64.6246 29.181 64.6493 29.4555 64.6804 29.5451C64.872 30.098 65.2048 30.6025 65.4928 31.1082C65.5204 31.1565 65.5424 31.2082 65.5733 31.2546C65.5838 31.2703 65.5639 31.2175 65.5547 31.201C65.3838 30.8947 65.1465 30.6177 64.9381 30.337C64.9331 30.3302 64.4886 29.7193 64.4474 29.7988C64.3112 30.0614 64.6041 30.6509 64.6969 30.8855C64.7984 31.1422 64.9214 31.4009 64.9773 31.6732C65.0094 31.8293 64.9136 31.6518 64.8783 31.6031C64.6826 31.3325 64.4879 31.0619 64.3051 30.7824C64.2947 30.7664 64.169 30.508 64.169 30.6091C64.169 31.1502 64.3162 31.5733 64.5855 32.0361C64.6338 32.119 64.6694 32.3398 64.7422 32.2774C64.8628 32.174 64.627 31.6098 64.5938 31.5247C64.5632 31.4461 64.311 30.7068 64.1319 30.77C63.9369 30.8388 64.3226 31.6627 64.4061 31.7825C64.5461 31.9833 64.4438 31.5386 64.4433 31.535C64.4177 31.3579 64.4058 30.833 64.3566 31.0051C64.3097 31.1695 64.419 31.4618 64.4597 31.6092C64.5991 32.114 64.7768 32.6085 64.9773 33.0919C64.9778 33.093 65.2312 33.7129 65.2743 33.6569C65.3186 33.5993 65.308 33.4242 65.3114 33.3641C65.3235 33.1469 65.3441 32.9044 65.2969 32.6898C65.2857 32.6383 65.258 32.5327 65.1918 32.5207C65.0416 32.4934 65.1651 32.8294 65.198 32.9785C65.2828 33.3629 65.4461 33.716 65.6496 34.0507C65.6589 34.0661 65.6953 34.1033 65.6908 34.0858C65.6586 33.9606 65.5961 33.8324 65.5403 33.7208C65.2908 33.2218 64.9904 32.7466 64.668 32.2918C64.6152 32.2172 64.4635 32.0072 64.4742 32.098C64.5124 32.4227 64.7229 32.7275 64.901 32.9888C65.0581 33.2192 65.2859 33.637 65.5341 33.7971C65.5944 33.836 65.5831 33.6584 65.5794 33.5868C65.5626 33.2514 65.4358 32.941 65.332 32.6258C65.287 32.4891 65.2543 32.3904 65.2248 32.2547C65.2218 32.2412 65.212 32.2026 65.2206 32.2134C65.2342 32.2304 65.2352 32.2544 65.2413 32.2753C65.3586 32.6757 65.4601 33.0805 65.5588 33.4857C65.5842 33.5898 65.628 33.9896 65.7403 34.061C65.9152 34.1724 65.6566 33.651 65.5691 33.463C65.381 33.0583 65.1679 32.6428 64.9258 32.267C64.802 32.0749 65.0556 32.7086 65.1629 32.9104C65.23 33.0367 65.4079 33.4118 65.398 33.2692C65.3784 32.9888 65.1699 32.6599 65.0598 32.4114C64.923 32.1026 64.7708 31.7927 64.7051 31.4587C64.693 31.3972 64.6717 31.2283 64.7175 31.2711C64.915 31.4554 65.0528 31.7879 65.1897 32.0113C65.3358 32.2497 65.4753 32.5304 65.664 32.7413C65.685 32.7648 65.7118 32.7816 65.7444 32.7723C65.7885 32.7597 65.4647 32.3002 65.4434 32.2712C65.4226 32.243 65.2357 31.937 65.2536 32.1598C65.2758 32.4353 65.3637 32.6979 65.4681 32.9517C65.469 32.9539 65.6488 33.3866 65.6619 33.3806C65.7655 33.3328 65.6307 32.8319 65.6166 32.7702C65.6133 32.7558 65.506 32.4618 65.5712 32.4444C65.709 32.4076 65.9149 32.4391 66.0517 32.4444C66.3196 32.4548 66.5602 32.4805 66.7693 32.663C66.9343 32.807 66.9741 32.9294 66.9198 32.6135C66.9019 32.5096 66.753 31.7464 66.8414 32.3289C66.9073 32.7628 66.9149 33.3241 67.093 33.7311C67.3067 34.2196 66.7838 32.7106 66.627 32.2011C66.5125 31.8291 66.8897 32.9349 67.0538 33.2878C67.2005 33.6032 66.6848 33.2681 66.5734 33.2197C66.5371 33.204 65.9764 32.8836 65.9589 33.0589C65.9301 33.3462 66.1601 34.3291 66.5569 34.3291C66.6035 34.3291 66.5536 34.229 66.5239 34.193C66.3242 33.9515 66.0444 33.743 65.765 33.6033C65.356 33.3987 65.9581 34.3265 66.029 34.424C66.2472 34.7241 66.3098 34.3718 66.2805 34.1559C66.2481 33.9164 66.1778 33.6457 66.0207 33.4548C66.0074 33.4386 65.9671 33.4008 65.9671 33.4218C65.9671 33.4835 66.0687 33.6287 66.0888 33.6692C66.1173 33.7271 66.4065 34.44 66.4496 34.2796C66.4985 34.0981 66.4733 33.8717 66.4661 33.6878C66.463 33.6077 66.4569 33.4378 66.4331 33.3476C66.409 33.2558 66.4144 33.5384 66.429 33.6321C66.4549 33.7979 66.5712 34.6516 66.9239 34.5106C67.1127 34.4351 67.0822 34.0391 67.0848 33.892C67.086 33.8198 67.011 33.4133 67.0889 33.3496C67.225 33.2383 67.3088 33.1573 67.2827 32.962C67.2508 32.7223 67.1586 32.8349 67.1384 32.997" stroke="black" stroke-width="0.5" stroke-linecap="round"/>
<path d="M66.4111 34.4304C66.5532 34.4304 66.6957 34.4293 66.8376 34.4386C66.9898 34.4487 67.1219 34.4843 67.2653 34.5368C67.4905 34.6193 67.714 34.7101 67.9333 34.8072C68.1265 34.8928 68.3118 34.9938 68.5018 35.0859C68.5301 35.0996 68.731 35.1694 68.6024 35.1651C68.3554 35.157 68.114 35.0823 67.8759 35.0231C67.6274 34.9614 67.3811 34.8952 67.1346 34.8261C67.0834 34.8118 66.7066 34.6945 66.8997 34.867C67.0894 35.0363 67.3463 35.1426 67.5801 35.2338C67.6867 35.2754 67.7958 35.3138 67.9067 35.3426C67.93 35.3487 67.99 35.3675 67.9788 35.3462C67.9241 35.2412 67.7113 35.1795 67.6144 35.1438C67.3731 35.0549 67.1213 34.9993 66.8772 34.919C66.6768 34.8531 66.4742 34.785 66.2756 34.7143C66.1762 34.679 66.4221 34.715 66.4282 34.7161C66.6529 34.7582 66.8597 34.8558 67.0713 34.9385C67.1776 34.9801 67.2867 35.0265 67.3979 35.0539C67.4151 35.0582 67.4251 35.0582 67.4073 35.0409C67.3551 34.9901 67.293 34.9486 67.2369 34.9025C67.075 34.7691 66.9369 34.618 66.8205 34.4434C66.7445 34.3294 66.6721 34.209 66.6512 34.0718C66.6399 33.9975 66.7404 34.0097 66.7932 34.0139C67.1218 34.0394 67.3708 34.2529 67.625 34.4386C67.7005 34.4938 67.7213 34.4783 67.7008 34.3777C67.6735 34.2441 67.6049 34.1262 67.5339 34.0115C67.4299 33.8433 67.316 33.6799 67.2032 33.5175C67.0999 33.3687 66.9942 33.1949 66.8488 33.0815C66.8066 33.0485 66.7755 33.0546 66.7755 33.1134C66.7755 33.2456 66.8752 33.3649 66.9524 33.4625C67.0719 33.6136 67.2068 33.7659 67.3712 33.8695C67.3932 33.8833 67.4175 33.8983 67.4121 33.86C67.3863 33.6795 67.1887 33.5129 67.0642 33.3974C66.9927 33.3311 66.9039 33.2833 66.8335 33.2187C66.8315 33.2169 66.8656 33.2257 66.869 33.227" stroke="black" stroke-width="0.5" stroke-linecap="round"/>
<path d="M68.743 34.6327C68.7838 34.6589 68.8674 34.651 68.911 34.6539C69.1059 34.667 69.3001 34.6857 69.4914 34.7273C69.7711 34.7881 70.0418 34.8836 70.3178 34.958C70.3446 34.9653 70.3314 34.9628 70.3107 34.9628C70.1079 34.9628 69.9048 34.9606 69.702 34.9645C69.542 34.9677 69.3789 34.9705 69.2228 35.0095C69.2087 35.013 69.1187 35.0278 69.1666 35.0551C69.4037 35.1902 69.7144 35.2299 69.9818 35.2544C70.023 35.2582 70.0641 35.2609 70.1055 35.2609C70.1825 35.2609 69.9534 35.2345 69.8789 35.2148C69.4464 35.1007 69.0105 34.9419 68.559 34.9314C68.5227 34.9306 68.4864 34.9308 68.4501 34.9308C68.4364 34.9308 68.4514 34.9306 68.4821 34.9415C68.6198 34.9901 68.755 35.047 68.8897 35.1036C69.0269 35.1612 69.1637 35.2195 69.292 35.2953C69.303 35.3018 69.3332 35.3078 69.3239 35.3166C69.3193 35.321 69.3114 35.3194 69.305 35.3201C69.2508 35.3261 69.1883 35.328 69.1358 35.3296C68.9471 35.3353 68.7578 35.3379 68.569 35.3349C68.5207 35.3341 68.446 35.3134 68.3986 35.3272C68.3784 35.3331 68.4289 35.358 68.4483 35.3663C68.5862 35.4246 68.7294 35.4728 68.8713 35.5201C68.939 35.5426 69.025 35.5596 69.0855 35.5999C69.115 35.6196 68.8962 35.6111 68.8826 35.6088C68.7433 35.5853 68.6075 35.539 68.472 35.5C68.4301 35.4879 68.3707 35.4709 68.3276 35.4574C68.3075 35.451 68.2492 35.4373 68.2697 35.4319C68.4058 35.3964 68.582 35.4172 68.7086 35.4739C68.8657 35.5443 69.0094 35.6432 69.1689 35.707C69.321 35.7679 69.4661 35.8067 69.628 35.8277C69.8719 35.8594 70.1039 35.8873 70.3498 35.8892C70.5292 35.8906 70.6917 35.9488 70.8669 35.978C70.9692 35.995 71.077 35.991 71.1804 36.0005C71.2834 36.0099 71.3919 36.0153 71.4904 36.0496C71.6012 36.0881 71.6883 36.1614 71.8052 36.1874C71.9668 36.2233 72.1093 36.2513 72.2761 36.2513C72.373 36.2513 72.4806 36.2372 72.5749 36.262C72.6685 36.2866 72.7668 36.3017 72.8618 36.3211C72.9656 36.3424 73.0879 36.3409 73.1931 36.346C73.3253 36.3523 73.4583 36.3454 73.5907 36.3495C73.8531 36.3577 74.1183 36.4033 74.3799 36.43C74.5772 36.4501 74.7499 36.5738 74.9466 36.5921C75.0826 36.6047 75.2258 36.614 75.359 36.6406C75.4191 36.6526 75.4724 36.6494 75.5329 36.6566C75.5713 36.6611 75.6148 36.6742 75.6518 36.6856C75.7427 36.7135 75.4613 36.6821 75.3673 36.6684C75.0794 36.6264 74.7971 36.5466 74.5088 36.5022C74.2284 36.4589 73.947 36.429 73.6776 36.3353C73.46 36.2596 73.2462 36.1724 73.031 36.0904C72.879 36.0325 72.7192 35.9821 72.5825 35.8916C72.3821 35.7589 72.2189 35.6067 71.9933 35.5106C71.8251 35.439 71.6493 35.388 71.4774 35.3266C71.3661 35.2869 71.2592 35.2365 71.1461 35.2018C70.9012 35.1267 70.6571 35.0456 70.4143 34.964C70.2671 34.9144 70.1209 34.8943 69.9723 34.8539C69.858 34.8229 69.7593 34.759 69.6475 34.7226C69.5078 34.677 69.3951 34.6047 69.3026 34.4883C69.189 34.3453 69.0881 34.1787 68.95 34.0576C68.8412 33.9621 68.7154 33.8695 68.5891 33.7985C68.4472 33.7186 68.2875 33.6998 68.133 33.6571C67.9572 33.6084 67.7644 33.578 67.6071 33.4826C67.4931 33.4134 67.3845 33.3392 67.2781 33.2589C67.1809 33.1856 67.0711 33.1479 66.9906 33.0519C66.9407 32.9923 66.9095 32.9075 66.8267 32.8868C66.6819 32.8506 66.5197 32.8415 66.3712 32.8229C66.3543 32.8208 66.3819 32.8421 66.3842 32.8448C66.4772 32.9523 66.5704 33.0598 66.6628 33.1678C66.8561 33.3935 67.0694 33.602 67.2769 33.8144C67.5337 34.0773 67.825 34.2669 68.1774 34.3747C68.3374 34.4237 68.5364 34.4537 68.6779 34.5481C68.7383 34.5883 68.7985 34.622 68.8708 34.622C68.9685 34.622 69.063 34.6301 69.1583 34.6539" stroke="black" stroke-linecap="round"/>
<path d="M77.585 37.0035C77.7344 37.0699 77.9696 37.0301 78.1314 37.0301C78.3136 37.0301 78.4957 37.0301 78.6779 37.0301" stroke="black" stroke-linecap="round"/>
<path d="M83.3853 37.4143C83.4012 37.5576 84.0692 37.6356 84.2207 37.6573C84.5175 37.6997 84.8356 37.707 85.1326 37.761C85.4284 37.8148 85.7335 37.9388 86.0391 37.9549C86.3456 37.971 86.6957 38.033 86.9619 38.2006C87.5038 38.5418 88.2215 38.4902 88.7967 38.7139C89.1027 38.8329 89.4583 38.833 89.7632 38.9269C90.0195 39.0057 90.3788 39.0145 90.5987 39.1944C91.0375 39.5534 91.7479 39.5364 92.2068 39.8934C92.3103 39.9739 92.421 40.012 92.5263 40.1173C92.6412 40.2322 92.8024 40.2582 92.9194 40.363C93.091 40.5165 93.3268 40.586 93.4983 40.7452C93.6441 40.8806 93.7762 40.9486 93.9624 41.0128C94.3903 41.1603 94.7442 41.4457 95.1064 41.6872C95.3515 41.8506 95.5352 42.0619 95.7999 42.1841C96.1763 42.3578 96.5735 42.5498 96.9603 42.6837C97.0799 42.7251 97.2289 42.8568 97.3425 42.8694C97.496 42.8864 97.5822 43.0575 97.7357 43.066C98.3287 43.0989 98.9012 43.2134 99.5022 43.2134C99.9618 43.2134 100.421 43.2134 100.881 43.2134C101.146 43.2134 101.405 43.2167 101.667 43.1752C101.951 43.1305 102.29 43.1331 102.563 43.0551C102.772 42.9954 102.963 42.9225 103.166 42.8476C103.324 42.7895 103.501 42.6613 103.658 42.6264C103.999 42.5505 104.159 42.1361 104.466 42.0339C104.618 41.9832 104.681 41.7998 104.763 41.679C104.851 41.5496 104.991 41.4638 105.08 41.335C105.271 41.0597 105.51 40.8449 105.746 40.6087C106.373 39.9818 106.681 39.1842 106.975 38.3753C107.088 38.0633 107.228 37.7685 107.368 37.4634C107.534 37.1031 107.761 36.8316 107.761 36.4314C107.761 36.1321 107.909 35.8188 107.909 35.5222C107.909 34.9966 107.958 34.4787 107.958 33.955C107.958 33.6892 108.045 33.4072 108.056 33.1277C108.067 32.8525 108.154 32.5916 108.154 32.3032" stroke="black" stroke-linecap="round"/>
<path d="M108.155 32.4015C108.155 31.8619 108.056 31.3704 108.056 30.8397C108.056 30.5794 108.105 30.3407 108.105 30.0671C108.105 29.8992 108.207 29.7648 108.242 29.6002C108.286 29.3913 108.302 29.1518 108.302 28.9367C108.302 28.6258 108.155 28.3716 108.155 28.0658C108.155 27.7855 108.176 27.4993 108.067 27.2412C108.025 27.1409 108.03 26.9387 108.01 26.8262C107.99 26.717 107.958 26.6451 107.958 26.5286C107.958 25.9038 107.529 25.3772 107.516 24.7457C107.511 24.5148 107.417 24.3222 107.417 24.0959C107.417 23.9655 107.425 23.8329 107.417 23.7028C107.405 23.4757 107.27 23.2109 107.27 22.9902C107.27 22.7809 107.229 22.4175 107.101 22.253C107.039 22.1737 107.023 21.9737 106.986 21.8735C106.933 21.7296 106.862 21.5392 106.779 21.4039C106.637 21.1745 106.583 20.9207 106.495 20.6667C106.453 20.5466 106.357 20.4425 106.334 20.3363C106.318 20.2674 106.242 20.2397 106.238 20.1643C106.229 19.9851 106.162 19.8245 106.118 19.651C106.062 19.4342 106.077 19.2434 105.845 19.2305C105.765 19.2261 105.599 19.0888 105.599 19.0094C105.599 18.8201 105.402 18.5916 105.304 18.4442" stroke="black" stroke-linecap="round"/>
<path d="M105.206 21.6878C105.85 21.1722 106.59 23.8118 106.653 24.1997C106.704 24.5147 106.627 24.3963 106.495 24.1587C106.039 23.3411 105.857 22.4236 105.719 21.5076C105.691 21.3187 105.57 21.0221 105.561 21.4202C105.55 21.8844 105.693 22.3601 105.834 22.7963C105.912 23.0368 106.073 23.6941 106.186 23.468C106.328 23.1843 106.163 22.6619 106.101 22.3868C105.996 21.913 105.876 21.4201 105.684 20.9725C105.656 20.9077 105.545 20.7319 105.561 20.8005C105.638 21.1271 105.848 21.4315 105.959 21.7479C106.087 22.1081 106.145 22.482 106.238 22.8509C106.254 22.9151 106.299 23.1823 106.374 23.2277C106.509 23.3086 106.362 22.9122 106.331 22.7581C106.235 22.2824 106.108 21.8235 106.093 21.3356C106.093 21.3347 106.09 20.8692 106.09 21.0817C106.09 21.5868 106.09 22.0919 106.09 22.597C106.09 23.0348 106.077 23.4764 106.118 23.913C106.127 24.0162 106.119 24.3101 106.238 24.3799C106.295 24.4137 106.248 23.5306 106.238 23.4461C106.225 23.3392 106.227 23.0587 106.151 23.1349C106.113 23.1723 106.14 23.2403 106.14 23.2932C106.137 23.69 106.14 24.0869 106.14 24.4836C106.14 26.1015 106.053 27.7444 106.151 29.3599C106.151 29.363 106.163 29.6846 106.211 29.6766C106.454 29.6361 106.217 28.0767 106.216 28.0712C106.118 27.1415 105.934 26.2337 105.763 25.3164C105.73 25.139 105.662 24.6066 105.651 24.7867C105.572 26.0417 105.831 27.2432 106.314 28.3989C106.396 28.5943 106.874 29.5458 107.095 28.9395C107.498 27.8345 107.216 26.3725 107.005 25.2508C107.005 25.2501 106.899 24.8775 106.972 25.1225C107.135 25.6686 107.303 26.2131 107.461 26.7607C107.607 27.2656 107.728 27.7865 107.923 28.276C108.089 28.6963 108.03 28.2699 107.991 28.0767C107.82 27.245 107.546 26.4472 107.21 25.6686C107.175 25.5881 106.981 24.987 106.828 24.9314C106.711 24.8891 106.436 26.5691 106.418 26.7143C106.417 26.727 106.343 27.1268 106.402 27.1511C106.547 27.2116 106.734 26.8623 106.762 26.788C107.171 25.728 106.473 24.4553 106.298 23.4133C106.257 23.1695 106.162 23.3144 106.107 23.4898C105.924 24.0729 105.867 24.699 105.796 25.3027C105.73 25.8631 105.512 26.6776 105.727 27.233C105.77 27.3423 105.859 27.4234 105.979 27.3695C106.255 27.2448 106.313 26.8501 106.344 26.5914C106.422 25.9593 106.348 25.3296 106.121 24.7348C106.008 24.44 105.777 23.7881 105.463 23.6154C105.384 23.5723 105.402 23.7879 105.402 23.8775C105.407 24.7175 105.43 25.5778 105.599 26.403C105.616 26.4841 105.685 26.9366 105.828 26.9818C106.049 27.0515 106.342 26.7008 106.418 26.5477C106.752 25.8798 106.422 24.7313 105.779 24.3362C105.541 24.19 105.505 24.8475 105.501 24.8768C105.351 25.9564 105.333 27.068 105.271 28.1559C105.252 28.4978 105.284 28.8007 105.654 28.9149C105.823 28.9673 106.121 29.0047 106.295 28.9449C106.489 28.8785 106.478 28.5332 106.451 28.3825C106.355 27.8511 105.846 27.4055 105.452 27.0774C105.32 26.9681 105.123 26.7949 105.069 27.061C104.975 27.525 104.995 28.0633 105.086 28.5245C105.135 28.7754 105.525 30.1841 106.039 29.5538C106.274 29.265 106.351 28.7661 106.284 28.4098C106.224 28.0866 106.082 27.8023 105.94 27.5088C105.868 27.3596 105.799 27.2083 105.714 27.0665C105.674 27.0006 105.643 26.8988 105.566 26.889C105.404 26.8682 105.521 28.523 105.542 28.6364C105.639 29.1702 105.966 29.9929 106.576 30.1299C107.062 30.2388 107.083 29.7268 107.062 29.4036C107.043 29.0986 106.98 28.8106 106.822 28.5463C106.655 28.2659 106.736 28.7907 106.74 28.8521C106.785 29.5016 106.88 30.1486 106.948 30.7961C106.987 31.1759 106.991 31.6268 107.166 31.9783C107.178 32.0028 107.247 32.1264 107.295 32.0684C107.522 31.79 107.282 30.8895 107.221 30.6159C107.103 30.0928 106.888 29.6228 106.675 29.136C106.654 29.0875 106.636 28.9304 106.631 28.9831C106.56 29.7617 106.473 30.6643 106.598 31.4377C106.691 32.0107 107.57 31.8435 107.641 31.3367C107.693 30.9692 107.529 30.5873 107.374 30.2664C107.249 30.0082 106.937 29.6733 106.885 29.3872C106.879 29.3534 107.271 29.5379 107.338 29.5483C107.616 29.5911 107.357 28.97 107.325 28.8958C107.311 28.8645 107.061 28.2791 106.975 28.3716C106.816 28.5435 106.878 29.0533 106.877 29.2562C106.876 29.533 106.718 30.7202 107.196 30.6787C107.815 30.6248 107.266 28.4967 107.062 29.7203C106.896 30.7228 106.832 31.7494 106.762 32.7619C106.718 33.4006 106.647 34.0691 106.691 34.7113C106.698 34.8129 106.758 34.9924 106.882 34.8314C107.001 34.6782 107.038 34.4507 107.041 34.269C107.052 33.5703 106.848 32.8783 106.645 32.2185C106.558 31.9372 106.304 31.095 106.35 31.3858C106.448 32.0065 106.529 32.6288 106.571 33.2561C106.589 33.5317 106.462 34.8859 107.095 34.5912C107.842 34.2439 107.411 32.9208 107.248 32.3687C107.128 31.9614 107.032 31.2985 106.773 30.949C106.722 30.8799 106.746 31.1199 106.751 31.2056C106.775 31.5919 106.82 31.9771 106.847 32.3633C106.852 32.4374 106.844 33.0603 106.904 33.0431C106.973 33.0233 106.993 33.0121 107.03 32.9366C107.18 32.6281 107.299 32.2777 107.412 31.9537C107.417 31.9382 107.502 31.5302 107.483 31.7025C107.408 32.3986 107.289 33.0913 107.183 33.783C107.139 34.0651 107.212 34.3767 106.899 34.2199C106.567 34.0538 106.55 36.2558 106.53 36.5679C106.53 36.5709 106.474 36.944 106.563 36.7945C106.697 36.5672 106.708 36.2293 106.718 35.9754C106.727 35.7602 106.704 35.1275 106.642 35.3338C106.572 35.5657 106.632 35.9083 106.631 36.142C106.629 36.5942 106.615 37.0446 106.593 37.4962C106.589 37.5707 106.531 37.8664 106.615 37.9331C106.762 38.0512 106.775 37.6917 106.776 37.6573C106.795 37.043 106.748 36.4265 106.85 35.8171C106.889 35.5788 106.71 35.6034 106.593 35.7816C106.394 36.0838 107.142 35.7793 107.226 35.7324C107.3 35.6915 107.468 35.5019 107.417 35.5686C107.278 35.752 107.198 36.0287 107.133 36.2457C106.938 36.9068 106.725 37.5982 106.435 38.2279C106.304 38.51 106.174 38.8605 106.142 39.1753C106.114 39.4549 105.862 39.7342 105.746 39.9944C105.586 40.3549 105.021 40.5331 104.693 40.6825C104.281 40.8695 103.894 41.1101 103.609 41.4906C103.464 41.6834 103.096 41.7837 102.874 41.8592C102.599 41.9529 102.331 42.0649 102.066 42.1787C101.521 42.4124 100.82 42.5746 100.22 42.5746C99.5742 42.5746 98.928 42.5746 98.2818 42.5746C97.9586 42.5746 97.6902 42.4077 97.3809 42.3179C96.9917 42.2049 96.6635 42.1209 96.316 41.8892C96.0308 41.6991 95.6941 41.6524 95.3823 41.5152C95.0598 41.3733 94.6276 41.1949 94.3721 40.9528C94.036 40.6344 93.678 40.3519 93.2363 40.1883C92.7071 39.9923 92.1664 39.8 91.6909 39.5002C91.2705 39.2352 90.9435 38.8111 90.5087 38.5719C90.3694 38.4953 90.2395 38.5126 90.091 38.4928C89.7209 38.4434 89.3415 38.3618 88.9715 38.2989C88.6413 38.2428 88.3765 38.2127 88.076 38.0805C87.9895 38.0424 87.8084 38.0465 87.8084 37.9303C87.8084 37.8197 88.4839 37.7784 88.5948 37.7583C89.0928 37.6683 89.6145 37.7092 90.1183 37.7092C90.2972 37.7092 90.4866 37.7256 90.6643 37.6982C90.8128 37.6754 90.3631 37.6972 90.2138 37.7146C89.6285 37.7829 89.0444 37.8302 88.4555 37.8539C88.2822 37.8609 87.7105 37.7936 87.5463 37.903C87.4766 37.9495 87.714 37.9017 87.7975 37.8948C88.105 37.8695 88.2798 37.8421 88.603 37.7993C89.6475 37.6607 90.6959 37.5551 91.7401 37.4143C92.2078 37.3512 92.6954 37.3068 93.1544 37.1904C93.4168 37.1239 92.6133 37.2278 92.3462 37.2723C91.8122 37.3613 91.2662 37.4562 90.7408 37.589C90.2551 37.7119 91.7445 37.5813 92.2424 37.5262C92.928 37.4504 93.6155 37.3432 94.2902 37.1986C94.4636 37.1614 94.96 37.0655 94.7898 37.0157C94.2951 36.8709 93.7296 36.8336 93.2199 36.7863C92.5594 36.725 91.8089 36.6665 91.2104 37.0157C91.0463 37.1114 90.9323 37.2828 91.1667 37.3925C91.7946 37.6864 92.7194 37.5678 93.381 37.5017C93.9521 37.4446 94.7002 37.3538 95.1311 36.9228" stroke="black" stroke-linecap="round"/>
<path d="M103.191 28.5682C103.214 28.844 103.273 29.1112 103.284 29.39C103.299 29.8025 103.246 30.2339 103.311 30.6432C103.423 31.3548 104.517 31.0541 104.987 30.9053C106.194 30.5235 105.912 29.0122 105.402 28.1532C105.1 27.6434 104.822 27.337 104.245 27.5853C103.859 27.751 103.819 28.3678 103.89 28.732C103.899 28.778 103.964 28.8601 104.005 28.7866C104.185 28.4591 104.125 27.9013 104.059 27.558C103.977 27.1341 103.739 26.7693 103.644 26.3539C103.595 26.1397 103.659 26.335 103.688 26.4167C103.901 27.0135 104.038 27.5436 104.065 28.1859C104.093 28.8868 104.079 29.5794 104.163 30.2773C104.248 30.9828 104.592 31.6844 104.507 32.4015C104.461 32.7876 104.169 33.0244 103.873 33.2452C103.379 33.6152 102.825 33.9329 102.241 34.138C101.373 34.4424 100.431 34.4959 99.5268 34.613C98.9001 34.6942 98.2497 34.7108 97.6293 34.8315C97.5336 34.8501 97.5683 34.8532 97.6047 34.8397C97.8526 34.7478 98.084 34.5904 98.2928 34.4328C99.0582 33.8553 99.81 33.1832 100.485 32.5025C100.645 32.3414 101.194 31.834 100.843 31.577C100.507 31.3307 99.8108 31.2855 99.6361 31.7244C99.2566 32.6775 101.264 32.5696 101.777 32.5053C102.03 32.4735 102.741 32.3969 102.847 32.0793C102.899 31.9217 102.735 31.7734 102.65 31.6643" stroke="black" stroke-width="4" stroke-linecap="round"/>
<path d="M100.488 32.4998C100.333 32.5169 100.136 32.5975 99.9907 32.6472C99.2843 32.8892 98.6024 33.2263 97.9212 33.5291C97.0025 33.9374 95.3663 34.0406 95.1881 35.3174C95.1253 35.768 95.8381 35.7797 96.1465 35.8116C96.4367 35.8416 96.7288 35.8416 97.0202 35.8416C97.2252 35.8416 97.2342 35.8296 97.0147 35.7488C96.2205 35.4565 95.2741 35.1497 94.4127 35.2574C94.0409 35.3038 94.4252 35.6705 94.5411 35.7597C94.6912 35.8753 95.3045 36.1155 94.9069 36.2184C94.2932 36.3773 93.6893 36.5724 93.0804 36.7481C93.0003 36.7712 92.5813 36.8761 92.6353 37.032C92.6677 37.1257 92.8506 37.3759 92.9411 37.4088C93.3098 37.5429 93.0124 37.5126 92.7473 37.5126C92.6208 37.5126 92.4943 37.5126 92.3677 37.5126C92.2162 37.5126 92.6218 37.5126 92.6544 37.5126C93.2711 37.5126 93.8061 37.7237 94.3936 37.8457C94.6354 37.8959 94.952 37.9511 95.18 38.0423C95.3749 38.1202 95.6116 38.1737 95.8188 38.2033C96.055 38.2371 95.4524 38.2951 95.4257 38.2989C95.1285 38.3406 94.8136 38.4208 94.511 38.3945C93.9806 38.3483 93.4417 38.0266 92.9411 37.8566C92.6811 37.7683 92.1548 37.6109 92.1548 37.6109C92.1548 37.6109 92.5247 37.623 92.7036 37.6655C93.2089 37.7854 93.6964 37.9752 94.1916 38.1296C94.6242 38.2646 94.899 38.4415 95.2509 38.703C95.5787 38.9465 95.8265 39.2095 96.2393 39.2845C96.4426 39.3215 96.5573 39.5275 96.8017 39.5275C96.9771 39.5275 97.2609 39.6098 97.4297 39.664C98.048 39.8628 98.6343 40.019 99.2836 40.019C99.7851 40.019 100.262 39.9207 100.758 39.9207C100.976 39.9207 101.156 39.9043 101.361 39.8333C101.736 39.7037 101.86 39.3248 102.219 39.1944C102.694 39.0215 103.566 38.6602 103.685 38.1269C103.756 37.8084 103.918 37.5096 103.966 37.1795C104.038 36.6817 104.107 36.3041 104.457 35.9235C104.738 35.6192 104.911 35.1638 104.911 34.7495C104.911 34.5402 104.899 34.4032 105.009 34.2198" stroke="black" stroke-width="4" stroke-linecap="round"/>
<path d="M98.9151 36.7262C99.7786 36.676 100.63 36.5297 101.495 36.5297C101.834 36.5297 101.668 36.5297 101.432 36.5624C100.889 36.6379 100.34 36.6579 99.797 36.7317C99.5381 36.7669 99.2855 36.834 99.027 36.8709C98.8696 36.8934 98.7176 36.9209 99.0079 36.9228C99.8615 36.9286 100.715 36.9228 101.569 36.9228" stroke="black" stroke-width="4" stroke-linecap="round"/>
<path d="M102.011 36.8737C102.402 36.8402 104.37 36.0656 104.37 37.0703C104.37 37.4347 104.504 37.6088 104.223 37.9057C104.043 38.0954 103.943 38.3203 103.818 38.5446C103.552 39.0239 102.757 38.9805 102.366 39.3419C102.204 39.4916 101.993 39.7241 101.765 39.7241C101.639 39.7241 101.552 39.7442 101.432 39.7842C101.308 39.8257 101.166 39.7941 101.05 39.847C100.754 39.9814 100.468 39.9646 100.168 40.0436C99.8539 40.1263 99.5102 40.1664 99.1879 40.1664C98.89 40.1664 98.6371 40.068 98.3524 40.0163C98.1252 39.9749 97.8799 39.8224 97.6617 39.8224C97.2064 39.8224 96.7769 39.6138 96.3348 39.5275C95.3793 39.3411 94.4051 38.9604 93.5171 38.5719C93.0168 38.353 92.3136 38.0052 92.0837 37.488C91.9615 37.2131 91.4074 37.2904 91.2974 37.0703" stroke="black" stroke-width="4" stroke-linecap="round"/>
<path d="M99.4555 42.0339C100.245 41.7239 101.107 41.7391 101.94 41.7391C101.977 41.7391 101.663 41.7522 101.593 41.7691C101.389 41.8188 101.157 41.8833 100.963 41.963C100.778 42.0385 100.979 42.0925 101.064 42.1131C101.384 42.191 101.666 42.2763 102 42.2797C102.24 42.2821 102.958 42.2797 102.718 42.2797C102.517 42.2797 102.264 42.4504 102.085 42.55C101.912 42.6458 101.581 42.4724 101.421 42.4271C100.632 42.203 99.8136 42.1399 99.0132 41.9684C98.7364 41.9091 98.4318 41.7882 98.1504 41.7882C98.0491 41.7882 97.3725 41.8147 97.588 41.8865" stroke="black" stroke-linecap="round"/>
<rect x="94" y="58" width="6" height="4" fill="black"/>
<path d="M99.9468 58.0997C100.097 58.0997 100.226 58.1994 100.366 58.2492C100.539 58.3113 100.68 58.3794 100.808 58.5118C101.048 58.7612 101.258 59.0427 101.474 59.3128C101.563 59.4237 101.631 59.5684 101.733 59.665C101.842 59.7681 102.01 59.7958 102.11 59.9093C102.207 60.0193 102.272 60.1202 102.398 60.2068C102.572 60.3266 102.666 60.5366 102.847 60.6538C102.962 60.729 103.094 60.857 103.214 60.9114C103.423 61.0061 103.532 61.2221 103.752 61.3069C103.935 61.3773 104.152 61.5098 104.345 61.5395C104.474 61.5594 104.558 61.6592 104.688 61.6592C104.794 61.6592 104.777 61.6645 104.703 61.6957C104.592 61.7425 104.471 61.7303 104.354 61.7788C104.202 61.8415 103.987 61.8985 103.819 61.8985C103.634 61.8985 103.452 61.9284 103.264 61.9284C102.775 61.9284 102.321 61.759 101.848 61.6592C101.361 61.5563 100.822 61.4797 100.326 61.4797C100.205 61.4797 100.08 61.469 99.9617 61.4946C99.9112 61.5056 99.8443 61.4997 99.7989 61.5262C99.7231 61.5704 99.9759 61.6422 100.007 61.6525C100.23 61.7281 100.552 61.7019 100.784 61.6824C101.184 61.6488 101.571 61.5287 101.967 61.4863C101.993 61.4836 102.237 61.4389 102.09 61.4564C102.061 61.4599 101.909 61.4638 101.898 61.4963C101.894 61.5076 101.916 61.5129 101.928 61.5163C101.987 61.5333 102.137 61.5506 102.19 61.5561C102.193 61.5564 102.49 61.6039 102.429 61.5395C102.395 61.5034 102.371 61.4797 102.32 61.4797C102.123 61.4797 102.045 61.3855 101.996 61.2105C101.968 61.1135 101.932 61.0156 101.923 60.9147C101.916 60.8457 101.938 60.76 101.908 60.6953C101.788 60.4385 101.303 60.2925 101.067 60.1702C100.9 60.084 100.745 59.9003 100.633 59.7548C100.468 59.54 100.423 59.2695 100.261 59.0585C100.232 59.021 99.9452 58.8088 99.9983 58.9738C100.04 59.1034 100.135 59.2132 100.184 59.341C100.237 59.4764 100.239 59.5991 100.249 59.7415C100.275 60.0905 100.296 60.4286 100.306 60.7784C100.307 60.8128 100.332 60.9462 100.372 60.9413C100.505 60.9247 100.268 60.3526 100.249 60.2932C100.186 60.0968 100.197 60.1446 100.267 60.2882C100.37 60.4969 100.487 60.6942 100.625 60.8815C100.746 61.0466 100.845 61.1669 101.05 61.2038C101.123 61.217 101.188 61.2423 101.256 61.2703C101.336 61.303 101.517 61.4613 101.605 61.3733C101.639 61.3399 101.622 61.2521 101.62 61.2138C101.609 60.9841 101.537 60.8013 101.429 60.6006C101.249 60.2663 101.189 59.8972 101.057 59.5437C100.949 59.2566 100.831 58.9243 100.611 58.7046C100.466 58.5596 100.295 58.5385 100.143 58.4137C100.078 58.361 100.046 58.2664 99.9617 58.2476C99.9082 58.2357 99.8212 58.1901 99.7673 58.1661C99.6794 58.1271 99.3544 58.1236 99.2588 58.1661C99.1377 58.2199 98.9626 58.1745 98.855 58.2343C98.7583 58.288 98.5529 58.2492 98.4445 58.2492C98.2385 58.2492 98.0324 58.2492 97.8263 58.2492C97.5849 58.2492 97.3454 58.2591 97.1068 58.2193C96.9872 58.1994 96.8974 58.1595 96.7745 58.1595C96.5834 58.1595 96.3922 58.1595 96.2011 58.1595C95.9391 58.1595 95.6771 58.1595 95.4151 58.1595C95.2705 58.1595 94.9363 58.1595 95.3104 58.1595" stroke="black" stroke-linecap="round"/>
<path d="M100.934 58.4885C101.158 58.5947 101.301 58.7622 101.459 58.9538C101.675 59.2157 101.882 59.4528 102.071 59.7382C102.486 60.3652 103.012 60.9519 103.704 61.2853C104.079 61.4656 104.488 61.5409 104.821 61.8071C104.911 61.8792 105.112 61.9659 105.225 61.9865C105.291 61.9985 105.369 62.0123 105.391 62.0779" stroke="black" stroke-linecap="round"/>
<line x1="182.688" y1="70.6096" x2="192.688" y2="62.6096" stroke="white"/>
<path d="M130.172 78.8328C127.445 79.5231 125.101 81.3931 123.741 83.9629C122.382 86.5321 122.155 89.5222 123.119 92.1645C124.02 94.6346 125.896 96.6684 128.403 97.8926L131.82 99.3901C135.259 100.927 136.572 99.3137 136.977 98.5493C137.123 98.2722 137.235 97.9575 137.31 97.6174C137.642 97.742 138.186 98.0342 138.609 98.2616L139.198 98.5769C139.624 98.809 140.269 99.1605 140.954 98.979C141.238 98.9043 141.636 98.7034 141.916 98.1743L145.716 90.9901C145.996 90.461 145.938 90.0201 145.841 89.743C145.605 89.075 144.952 88.7392 144.52 88.5172L143.929 88.2089C143.502 87.9863 142.954 87.7012 142.664 87.4959C142.905 87.2401 143.101 86.9722 143.247 86.6962C143.651 85.9318 144.246 83.9394 141.046 81.9632L137.913 79.998L137.88 79.9781C135.457 78.5947 132.72 78.1882 130.172 78.8328ZM137.023 81.4228L140.145 83.3799C141.557 84.2524 142.066 85.0861 141.659 85.8562C141.565 86.0337 141.425 86.2139 141.238 86.3977C140.796 86.8394 140.663 87.3546 140.84 87.8616C141.109 88.6329 141.967 89.0802 143.155 89.6982L143.756 90.0123C143.854 90.0631 144 90.1378 144.101 90.2016L143.272 91.7682L141.311 90.7308L140.683 91.9183L142.644 92.9557L141.811 94.5292L139.85 93.4918L139.223 94.6788L141.184 95.7162L140.354 97.2834C140.245 97.2351 140.102 97.1569 140.003 97.1032L139.405 96.7831C138.227 96.1496 137.375 95.6924 136.585 95.9036C136.069 96.0414 135.719 96.4278 135.598 97.0637C135.553 97.3147 135.483 97.5319 135.389 97.7094C134.981 98.4801 134.006 98.527 132.483 97.8477L129.115 96.372C127.059 95.3623 125.522 93.6978 124.787 91.6813C123.984 89.4793 124.182 86.9719 125.329 84.8029C126.477 82.6334 128.438 81.0594 130.711 80.4843C132.791 79.9573 135.032 80.2906 137.023 81.4228Z" fill="white" stroke="white" stroke-width="0.00512"/>
<path d="M135.882 90.385C135.694 90.7412 137.109 92.494 137.339 92.7985C137.569 93.1019 138.178 93.0592 138.251 92.5504C138.325 92.0423 138.094 91.5553 138.094 91.5553C138.094 91.5553 138.627 91.472 139.005 91.1247C139.384 90.7786 139.077 90.2504 138.697 90.2316C138.316 90.2134 136.071 90.0283 135.882 90.385Z" fill="white" stroke="white" stroke-width="0.00512"/>
<path d="M129.291 90.8575C128.565 91.9221 128.908 93.4021 130.056 94.1622L131.129 94.926C132.278 95.6864 133.797 95.4378 134.524 94.3732C135.25 93.3075 134.908 91.8278 133.758 91.0679L132.686 90.3042C131.536 89.5443 130.018 89.7918 129.291 90.8575Z" fill="white" stroke="white" stroke-width="0.00512"/>
<path d="M135.726 83.444C134.452 82.9215 133.035 83.4713 132.564 84.6707C132.092 85.8712 132.742 87.266 134.017 87.7888L135.251 88.2462C136.526 88.7684 137.942 88.2189 138.414 87.0189C138.886 85.8189 138.236 84.423 136.961 83.9008L135.726 83.444Z" fill="white" stroke="white" stroke-width="0.00512"/>
<path d="M116.56 78.1348C117.618 77.8385 118.608 78.6346 118.868 79.563C119.395 81.4433 116.873 83.8092 116.82 83.8242C116.766 83.8391 113.383 83.1259 112.857 81.2456C112.597 80.3172 113.03 79.1229 114.088 78.8265C114.696 78.6564 115.179 78.8491 115.484 79.0517C115.64 78.7201 115.952 78.3049 116.56 78.1348Z" stroke="white" stroke-linecap="round" stroke-linejoin="round"/>
<path d="M104.56 84.1348C105.618 83.8385 106.608 84.6346 106.868 85.563C107.395 87.4433 104.873 89.8092 104.82 89.8242C104.766 89.8391 101.383 89.1259 100.857 87.2456C100.597 86.3172 101.03 85.1229 102.088 84.8265C102.696 84.6564 103.179 84.8491 103.484 85.0517C103.64 84.7201 103.952 84.3049 104.56 84.1348Z" stroke="white" stroke-linecap="round" stroke-linejoin="round"/>
<path d="M92.5598 77.1348C93.6185 76.8385 94.6084 77.6346 94.8683 78.563C95.3945 80.4433 92.8732 82.8092 92.8197 82.8242C92.7663 82.8391 89.3831 82.1259 88.8568 80.2456C88.5969 79.3172 89.0297 78.1229 90.0884 77.8265C90.6962 77.6564 91.1787 77.8491 91.4839 78.0517C91.6396 77.7201 91.952 77.3049 92.5598 77.1348Z" stroke="white" stroke-linecap="round" stroke-linejoin="round"/>
<rect x="149.569" y="45" width="33.824" height="6.28692" transform="rotate(34.5879 149.569 45)" fill="black"/>
<line x1="33.9872" y1="63.5002" x2="72.9872" y2="62.5002" stroke="white"/>
<line x1="106" y1="62.5" x2="162" y2="62.5" stroke="white"/>
<line x1="175" y1="62.5" x2="192" y2="62.5" stroke="white"/>
<rect x="130" y="49" width="6.4" height="5" fill="black"/>
<rect x="134.267" y="51" width="6.4" height="5" fill="black"/>
<rect x="136.4" y="48" width="6.4" height="5" fill="black"/>
<rect x="139.6" y="45" width="6.4" height="5" fill="black"/>
<path d="M18.46 95.3598L15.453 103.259L10.2678 97.4396L18.46 95.3598Z" fill="black"/>
<path d="M25.46 96.3598L22.453 104.259L17.2678 98.4396L25.46 96.3598Z" fill="black"/>
<path d="M88.0506 2.56227C81.4237 9.91286 76.336 25.4912 109 29" stroke="white"/>
<path d="M94.8179 10.0719C95.2602 10.0719 95.6994 10.0257 96.1322 10.0257C96.5135 10.0257 96.7575 10.2699 97.1026 10.3954C97.4546 10.5234 97.8138 10.8499 98.0755 11.1116C98.2471 11.2832 98.3843 11.4788 98.4683 11.7097C98.5348 11.8928 98.6773 12.0671 98.7558 12.2437C98.8593 12.4766 98.915 12.7174 99.0125 12.9368C99.0796 13.0878 99.069 13.3699 99.069 13.5375C99.069 13.7479 99.0228 13.9313 99.0228 14.1382" stroke="white" stroke-width="0.5" stroke-linecap="round"/>
<path d="M94.1576 10.1184C94.1428 10.1353 94.3257 10.1354 94.364 10.1343C94.449 10.1318 94.5205 10.1025 94.6101 10.1025C94.6817 10.1025 94.7537 10.1057 94.8174 10.0875C94.8721 10.0719 94.7098 10.0707 94.6816 10.0707" stroke="white" stroke-width="0.5" stroke-linecap="round"/>
<path d="M99.0007 14.2151C99.0007 14.4049 98.9849 14.5796 98.9849 14.7709" stroke="white" stroke-width="0.5" stroke-linecap="round"/>
<path d="M150 38C151.5 37.5 152.988 37.5 154.488 36" stroke="white" stroke-width="0.5" stroke-linecap="round"/>
<path d="M153.054 34.4275C153.621 34.1453 154.2 33.8784 154.758 33.5775C154.899 33.5013 155.65 33.1793 155.651 33" stroke="white" stroke-width="0.5" stroke-linecap="round"/>
<path d="M147.982 40.5736C148.409 40.5736 148.813 40.4545 149.226 40.3988C149.351 40.382 149.449 40.3611 149.565 40.3336C149.675 40.3079 149.781 40.226 149.884 40.1746" stroke="black" stroke-width="0.5" stroke-linecap="round"/>
<path d="M148 40.9574C148.127 40.9574 148.25 40.9566 148.376 40.9377C148.615 40.9018 148.846 40.8142 149.085 40.7823C149.345 40.7476 149.632 40.6773 149.878 40.5846C150.276 40.4349 150.61 40.123 150.974 39.9208C151.219 39.7848 151.379 39.5408 151.635 39.4124C151.855 39.3026 152.037 39.0781 152.271 39" stroke="white" stroke-width="0.5" stroke-linecap="round"/>
</svg>
