<svg width="237" height="132" viewBox="0 0 237 132" fill="none" xmlns="http://www.w3.org/2000/svg">
<rect x="36" y="59" width="157" height="43" fill="black"/>
<path d="M2.66697 90.0671C1.78952 89.7443 1.79568 88.5011 2.67628 88.1868L36.1852 76.2265C36.8384 75.9934 37.5247 76.4796 37.5213 77.1731L37.4012 101.418C37.3978 102.111 36.7067 102.591 36.0559 102.351L2.66697 90.0671Z" fill="black"/>
<path d="M2.66697 72.5969C1.78952 72.274 1.79568 71.0309 2.67628 70.7166L36.1852 58.7563C36.8384 58.5231 37.5247 59.0094 37.5213 59.7029L37.4012 83.9475C37.3978 84.641 36.7067 85.1206 36.0559 84.8811L2.66697 72.5969Z" fill="black"/>
<rect x="2.5791" y="72.2223" width="23.2089" height="17.4701" fill="black"/>
<path d="M233.817 89.9361C234.755 89.6418 234.748 88.3116 233.806 88.0253L193.878 75.8785C193.233 75.6824 192.584 76.1661 192.588 76.8393L192.729 101.468C192.733 102.141 193.387 102.619 194.029 102.418L233.817 89.9361Z" fill="black"/>
<path d="M233.878 72.2494C234.809 71.9521 234.802 70.631 233.867 70.3415L193.268 57.773C192.623 57.5732 191.97 58.0571 191.974 58.7324L192.119 84.2099C192.123 84.8852 192.781 85.3636 193.425 85.1584L233.878 72.2494Z" fill="black"/>
<rect width="27.8507" height="18.1832" transform="matrix(-1 0 0 1 233.905 71.8844)" fill="black"/>
<path d="M92.7466 47.2244C96.7512 53.541 95.7461 61.3569 90.5018 64.6817C85.2574 68.0064 77.7597 65.581 73.7552 59.2644C69.7506 52.9477 70.7557 45.1318 76 41.8071C81.2443 38.4823 88.7421 40.9077 92.7466 47.2244Z" fill="black"/>
<rect x="84" y="43" width="46" height="11" fill="black"/>
<rect x="72" y="35" width="10" height="12" fill="black"/>
<path fill-rule="evenodd" clip-rule="evenodd" d="M156.263 32.7061C156.263 32.7059 156.263 32.7056 156.264 32.7054C156.973 31.6016 156.609 30.1028 155.451 29.3577C154.292 28.6125 152.777 28.9032 152.067 30.007C152.067 30.0072 152.067 30.0075 152.067 30.0077L156.263 32.7061Z" fill="black"/>
<path fill-rule="evenodd" clip-rule="evenodd" d="M141.493 56.0293C141.493 56.0296 141.493 56.0298 141.493 56.03C140.79 57.1385 139.277 57.4393 138.114 56.7019C136.95 55.9645 136.576 54.4682 137.279 53.3597C137.279 53.3594 137.279 53.3592 137.279 53.359L141.493 56.0293Z" fill="black"/>
<path d="M152.269 29.6895L156.492 32.3658L141.505 56.017L139.393 54.6788L137.282 53.3406L152.269 29.6895Z" fill="black"/>
<line x1="3.8328" y1="71.5288" x2="34.8328" y2="60.5288" stroke="white"/>
<line x1="3.5" y1="71" x2="3.5" y2="88" stroke="white"/>
<line x1="25.3201" y1="91.6159" x2="37.3201" y2="101.616" stroke="white"/>
<path d="M24.9998 77.9998L53 64" stroke="white"/>
<line x1="25.5" y1="93" x2="25.5" y2="77" stroke="white"/>
<line x1="25.8892" y1="77.4876" x2="3.88919" y2="72.4876" stroke="white"/>
<line x1="25.6815" y1="92.6147" x2="3.15535" y2="87.5578" stroke="white"/>
<line x1="233.028" y1="72.4757" x2="192.846" y2="59.4757" stroke="white"/>
<path d="M233.499 71.9631L234 88" stroke="white"/>
<line x1="212.375" y1="92.4615" x2="193.192" y2="100.461" stroke="white"/>
<path d="M212 77.0001L181.835 68" stroke="white"/>
<line x1="211.5" y1="93" x2="211.5" y2="76" stroke="white"/>
<line y1="-0.5" x2="23.0868" y2="-0.5" transform="matrix(0.975715 -0.219042 -0.219042 -0.975715 211.391 92.1269)" stroke="white"/>
<line y1="-0.5" x2="23.0868" y2="-0.5" transform="matrix(0.975715 -0.219042 -0.219042 -0.975715 211.391 76.1269)" stroke="white"/>
<line x1="34.9969" y1="101.5" x2="193.997" y2="100.5" stroke="white"/>
<path d="M44.0039 68.874L183 69" stroke="white"/>
<line x1="34.103" y1="60.5107" x2="53.103" y2="64.5107" stroke="white"/>
<ellipse cx="84" cy="17.5" rx="22" ry="17.5" fill="black"/>
<path d="M62.6843 21.2003C62.6843 21.4227 62.6783 21.646 62.6843 21.8684C62.6872 21.9764 62.7556 22.0609 62.7585 22.1653C62.7617 22.2764 62.7585 22.3882 62.7585 22.4994C62.7585 22.6819 62.905 22.7344 62.973 22.8705C62.9992 22.923 62.9756 22.9996 62.9812 23.0561C62.9908 23.1512 63.0458 23.2475 63.0575 23.353C63.0782 23.5389 63.1228 23.7308 63.1297 23.9181C63.1357 24.0804 63.1135 24.2468 63.1483 24.4068C63.2354 24.8074 63.1282 25.2452 63.1689 25.6522C63.1828 25.7908 63.2017 25.9557 63.2596 26.0832C63.3317 26.2418 63.2911 26.4256 63.3607 26.5822C63.4259 26.7291 63.4106 26.851 63.4473 27.0132C63.5088 27.2858 63.5864 27.6428 63.703 27.8978C64.0904 28.7453 64.3363 29.6906 64.7711 30.5167C64.8288 30.6262 64.9561 30.7028 65.0144 30.8136C65.1004 30.9769 65.1554 31.0487 65.299 31.1662C65.4238 31.2683 65.5398 31.3678 65.6537 31.4817C65.7775 31.6055 65.9366 31.6545 66.0847 31.7456C66.243 31.8431 66.4092 31.9849 66.5445 32.1127C66.6474 32.2099 66.8277 32.1384 66.9363 32.2075C67.1625 32.3515 67.4168 32.7437 67.7137 32.7437C67.8293 32.7437 67.9518 32.7925 68.0663 32.8179C68.2257 32.8533 68.4986 32.9229 68.6313 33.0035C68.722 33.0586 68.8264 33.1258 68.92 33.1726C69.0013 33.2132 69.1279 33.1921 69.1984 33.2468C69.3853 33.3922 69.6088 33.36 69.819 33.42C70.1958 33.5277 70.6022 33.5409 70.9697 33.6634C71.1385 33.7196 71.2966 33.6802 71.4646 33.7108C71.6304 33.7409 71.7943 33.7736 71.9636 33.783C72.082 33.7895 72.2144 33.8509 72.3348 33.8572C72.5385 33.8679 72.7452 33.8572 72.9493 33.8572C73.3531 33.8572 73.7371 33.9314 74.1349 33.9314C74.2774 33.9314 74.5931 33.9491 74.7103 34.0428C74.8969 34.1921 75.4116 34.1913 75.6547 34.1913C76.0314 34.1913 76.3924 34.2655 76.7703 34.2655C76.9543 34.2655 77.122 34.3026 77.3085 34.3026C77.3631 34.3026 77.7444 34.3026 77.5312 34.3026C77.3612 34.3026 77.2076 34.1913 77.028 34.1913C76.8736 34.1913 76.747 34.1116 76.6032 34.0717C76.3861 34.0113 76.1013 33.9753 75.9021 33.8758C75.7219 33.7857 75.7127 33.6716 75.4815 33.6716C75.2947 33.6716 75.097 33.692 74.9123 33.6634C74.7744 33.642 74.6385 33.5808 74.4999 33.5623C74.3471 33.5419 74.2153 33.5047 74.069 33.4489C73.9594 33.4072 73.9452 33.3412 73.8195 33.3376C73.6257 33.332 73.4676 33.1936 73.2709 33.1891C73.0397 33.1838 72.7815 33.1285 72.5595 33.0592C72.3823 33.0038 72.1722 33.0546 72.0007 32.9581C71.8531 32.8751 72.3308 32.8748 72.4997 32.8633C73.0237 32.8276 73.5562 32.855 74.0813 32.855C74.3469 32.855 74.6251 32.8306 74.8897 32.8571C75.3637 32.9045 73.9623 33.0852 73.4895 33.1437C73.4556 33.1479 72.8035 33.1891 73.0235 33.1891C73.459 33.1891 73.8759 33.2762 74.3082 33.2984C74.6221 33.3145 74.2607 33.3004 74.1514 33.3004C74.0188 33.3004 73.8861 33.3004 73.7535 33.3004C73.7429 33.3004 73.7121 33.3056 73.7225 33.3066C74.0528 33.3397 74.3843 33.3597 74.7144 33.3953C75.0679 33.4334 74.9775 33.4382 74.7639 33.4654C74.5046 33.4985 74.248 33.5497 73.9885 33.5809C73.7035 33.6151 73.4653 33.5797 73.1885 33.5046C73.0611 33.47 72.9162 33.4485 72.7946 33.3953C72.6993 33.3536 73.002 33.3747 73.106 33.3747C73.6449 33.3747 74.1837 33.3747 74.7226 33.3747C75.4173 33.3747 73.3321 33.3592 72.6399 33.3004C72.4146 33.2813 71.694 33.3267 71.5038 33.0942C71.3923 32.958 72.3659 32.8307 72.4296 32.822C72.74 32.78 73.0527 32.7548 73.3658 32.7457C73.4576 32.7431 73.6827 32.7472 73.44 32.7437C73.0007 32.7374 72.561 32.7109 72.1244 32.6612C72.0618 32.6541 71.4477 32.6276 71.3903 32.5292C71.3646 32.485 71.4919 32.5156 71.5429 32.5127C71.6747 32.5053 71.9116 32.4954 72.0337 32.4921C72.5458 32.4783 73.0634 32.5085 73.5741 32.4632C74.0757 32.4188 73.4602 32.322 73.3142 32.2962C73.1461 32.2665 70.9326 32.0186 70.9326 32.1581C70.9326 32.2825 72.2306 32.4102 72.3966 32.4303C72.5385 32.4474 72.948 32.4662 72.576 32.3024C71.9873 32.0431 71.3268 31.8861 70.681 31.9292C70.1205 31.9665 71.7826 32.1693 72.343 32.2075C72.4597 32.2155 72.5842 32.2657 72.6936 32.224C72.7983 32.1842 72.4771 32.1658 72.3678 32.1416C71.8127 32.0184 71.214 31.8538 70.6397 31.8982C70.5756 31.9032 70.3512 31.9568 70.5325 32.0178C70.8264 32.1168 71.1542 32.1127 71.4605 32.1127C71.6949 32.1127 71.9078 32.065 71.7636 31.7766C71.5891 31.4277 71.16 31.3985 70.8191 31.4095C70.8096 31.4098 70.3474 31.4536 70.5098 31.5456C70.7253 31.6677 71.0039 31.723 71.2439 31.7683C71.3706 31.7922 71.7609 31.8925 71.8811 31.7828C72.4024 31.3068 70.2827 30.1075 70.3325 31.1291C70.3458 31.4025 70.5836 31.4619 70.8233 31.4796C71.0727 31.4981 70.8304 31.0485 70.7511 30.9744C70.5321 30.7699 70.3069 30.8406 70.1531 31.0569C69.932 31.3679 70.126 31.4881 70.4748 31.5106C70.8634 31.5356 71.0443 31.186 70.7655 30.8961C70.4294 30.5465 70.0424 30.7619 69.7201 31.0116C69.4255 31.2397 69.2807 31.4867 69.7324 31.5766C69.9588 31.6216 70.7698 31.8039 70.6439 31.3394C70.5303 30.9206 69.9923 30.6861 69.5943 30.6672C69.1359 30.6454 69.4946 30.9335 69.7696 30.9497C69.9853 30.9624 70.1133 30.7905 69.9881 30.595C69.8738 30.4163 69.6205 30.3216 69.4231 30.2816C69.2628 30.2491 68.81 30.1925 68.6973 30.3764C68.5417 30.6303 69.0828 30.6839 69.2004 30.694C69.2616 30.6992 69.4333 30.733 69.4891 30.6857C69.5834 30.606 69.2793 30.2514 69.2458 30.2156C68.9825 29.9343 68.5314 29.6591 68.124 29.7434C67.81 29.8084 67.9326 30.2021 68.1158 30.3352C68.2801 30.4546 68.7783 30.6492 68.9159 30.3806C69.141 29.941 68.5091 29.399 68.1302 29.3372C67.891 29.2981 67.64 29.4173 67.6271 29.6815C67.6163 29.9016 68.0301 30.106 68.2189 29.9888C68.4446 29.8487 67.6946 29.3996 67.5796 29.3743C67.2626 29.3044 67.6835 29.9881 67.7302 30.0383C67.8797 30.1988 68.0709 30.3371 68.2931 30.3641C68.3161 30.3669 68.4219 30.3832 68.3447 30.3414C68.2056 30.2661 68.0587 30.204 67.9096 30.1517C67.8852 30.1431 67.5777 30.032 67.7529 30.1331C68.0389 30.2981 68.3374 30.5167 68.6808 30.5167C68.7185 30.5167 68.7493 30.501 68.7262 30.4548C68.5664 30.1354 67.9564 29.9159 67.6621 29.7826C67.4058 29.6664 67.2053 29.5893 66.9383 29.5124C66.8013 29.473 66.6514 29.4358 66.8641 29.5372C67.3227 29.7558 67.8 29.9424 68.2684 30.1393C68.3674 30.1809 68.6776 30.3459 68.388 30.2073C68.3443 30.1864 67.8367 29.8569 68.0539 29.8156C68.2527 29.7777 69.1644 30.3 69.1015 30.4259C69.0765 30.4759 67.469 29.1863 67.3363 29.065C67.1904 28.9315 67.0383 28.7951 66.9363 28.6237C66.9325 28.6174 66.846 28.4813 66.9115 28.5123C67.0722 28.5884 67.2166 28.8156 67.326 28.9454C67.5009 29.1528 67.6816 29.3691 67.7879 29.6217C67.8973 29.8815 67.6748 29.6022 67.6436 29.564C67.2617 29.0961 66.8787 28.6248 66.528 28.1329C66.479 28.0642 66.25 27.8041 66.2641 27.6916C66.2816 27.5515 66.4585 27.8972 66.5445 28.0092C66.678 28.1829 66.8039 28.3639 66.8992 28.5618C66.9549 28.6776 66.9697 28.6871 66.895 28.5577C66.7214 28.2567 66.5092 27.9784 66.3053 27.6978C66.1483 27.4817 65.9772 27.0947 65.765 26.9287C65.7354 26.9055 65.8909 27.7324 65.8929 27.7391C66.0118 28.1341 66.1708 28.6455 66.5197 28.9082C66.8572 29.1624 66.6398 28.4242 66.6105 28.3515C66.3911 27.8078 66.0079 27.3344 65.6743 26.8586C65.5832 26.7286 65.3667 26.3433 65.3588 26.5018C65.3474 26.73 65.3612 26.965 65.3959 27.1905C65.4017 27.2278 65.5167 27.5779 65.4392 27.3163C65.3032 26.8572 65.0767 26.4186 64.8701 25.9884C64.8564 25.9599 64.4188 25.0493 64.5938 25.5553C64.6923 25.8403 64.977 26.696 64.9155 26.4008C64.8483 26.0786 64.6536 25.776 64.4824 25.5017C64.3963 25.3637 64.2177 24.9585 64.0535 24.8831C64.0319 24.8732 64.1126 25.3417 64.1154 25.3574C64.15 25.5525 64.1506 25.7665 64.2144 25.9554C64.2495 26.0595 64.2823 26.0484 64.2803 25.9348C64.2752 25.6319 64.2144 25.3362 64.1236 25.0481C64.0486 24.8098 63.9165 24.5689 63.8782 24.3202C63.8471 24.1178 64.0756 24.6793 64.1628 24.8645C64.1926 24.9278 64.2154 24.9998 64.1401 24.8913C64.0005 24.6903 63.881 24.4648 63.7855 24.2397C63.7081 24.0575 63.7236 23.9184 63.7236 24.215C63.7236 24.3508 63.7129 24.4924 63.7318 24.6274C63.7478 24.7409 63.7062 24.365 63.6947 24.3305C63.6755 24.2728 63.4231 23.6521 63.4328 23.8418C63.4427 24.0337 63.4861 24.2305 63.538 24.415C63.564 24.5073 63.5774 24.5378 63.6081 24.6233C63.6228 24.6642 63.6186 24.7777 63.6494 24.747C63.7201 24.6762 63.4848 24.0289 63.472 23.9139C63.4649 23.8497 63.4927 23.6623 63.4638 23.7201C63.3797 23.8882 63.3686 24.1497 63.3586 24.3305C63.3358 24.7418 63.2998 25.2217 63.5318 25.5842C63.6064 25.7007 63.5733 25.442 63.5731 25.4337C63.5668 25.23 63.5715 25.0051 63.5298 24.8047C63.5085 24.7026 63.4575 24.8669 63.4555 24.8749C63.391 25.1355 63.3882 25.4128 63.406 25.6791C63.4116 25.7619 63.6476 27.1945 63.8514 27.0833C63.9719 27.0176 63.7601 26.3385 63.7504 26.2997C63.6938 26.0747 63.634 25.8647 63.5545 25.6481C63.5363 25.5987 63.4892 25.4616 63.4741 25.512C63.4036 25.7469 63.5277 26.1825 63.5628 26.4111C63.6058 26.6915 63.6443 27.0163 63.7916 27.2668C63.9553 27.5451 63.9422 26.9981 63.9422 26.9369C63.9422 26.5624 63.9239 26.1861 63.8906 25.8131C63.8771 25.6617 63.8732 25.2168 63.8267 25.3615C63.7746 25.5235 63.7944 25.7452 63.7978 25.91C63.8074 26.3672 63.8824 26.8181 64.004 27.2586C64.0327 27.3624 64.104 27.7287 64.2432 27.7906C64.3568 27.8411 64.2889 27.084 64.2886 27.0813C64.2433 26.6097 64.1263 26.1697 63.9566 25.7285C63.9115 25.6112 63.7978 25.2605 63.7978 25.3862C63.7978 26.4004 64.2427 27.2782 64.7258 28.1453C64.7757 28.2349 64.8833 28.4975 64.9031 28.3969C64.9491 28.162 64.8993 27.868 64.8454 27.6421C64.7798 27.3677 64.4269 26.5983 64.569 26.8421C64.8329 27.2944 65.0088 27.7925 65.2866 28.2381C65.64 28.8049 65.2872 28.1151 65.198 27.9308C65.0273 27.5785 64.8503 27.2214 64.7608 26.8379C64.7566 26.8199 64.691 26.4126 64.7422 26.6647C64.9411 27.6434 65.3007 28.6024 65.7485 29.4939C65.7912 29.5787 65.8315 29.7832 65.9094 29.7289C66.0173 29.6537 65.877 29.466 65.8351 29.3413C65.6522 28.7958 65.4147 28.2671 65.2165 27.7267C65.1727 27.6071 65.127 27.5522 65.2227 27.737C65.4478 28.1714 65.6751 28.6059 65.9156 29.032C66.0057 29.1917 66.1518 29.5518 66.3259 29.6527C66.3497 29.6664 66.3557 29.6038 66.3568 29.5764C66.3669 29.3305 66.3169 29.0818 66.2352 28.8505C66.029 28.2667 65.688 27.7267 65.3238 27.2297C65.3131 27.2152 65.085 26.8578 65.0474 27.0813C64.9875 27.4378 65.146 27.8775 65.2495 28.2113C65.2811 28.3132 65.2995 28.4273 65.3691 28.5082C65.3939 28.537 65.3947 28.4349 65.3939 28.3969C65.3786 27.6695 65.0707 26.8679 64.6763 26.2606C64.6246 26.181 64.6493 26.4555 64.6804 26.5451C64.872 27.098 65.2048 27.6025 65.4928 28.1082C65.5204 28.1565 65.5424 28.2082 65.5733 28.2546C65.5838 28.2703 65.5639 28.2175 65.5547 28.201C65.3838 27.8947 65.1465 27.6177 64.9381 27.337C64.9331 27.3302 64.4886 26.7193 64.4474 26.7988C64.3112 27.0614 64.6041 27.6509 64.6969 27.8855C64.7984 28.1422 64.9214 28.4009 64.9773 28.6732C65.0094 28.8293 64.9136 28.6518 64.8783 28.6031C64.6826 28.3325 64.4879 28.0619 64.3051 27.7824C64.2947 27.7664 64.169 27.508 64.169 27.6091C64.169 28.1502 64.3162 28.5733 64.5855 29.0361C64.6338 29.119 64.6694 29.3398 64.7422 29.2774C64.8628 29.174 64.627 28.6098 64.5938 28.5247C64.5632 28.4461 64.311 27.7068 64.1319 27.77C63.9369 27.8388 64.3226 28.6627 64.4061 28.7825C64.5461 28.9833 64.4438 28.5386 64.4433 28.535C64.4177 28.3579 64.4058 27.833 64.3566 28.0051C64.3097 28.1695 64.419 28.4618 64.4597 28.6092C64.5991 29.114 64.7768 29.6085 64.9773 30.0919C64.9778 30.093 65.2312 30.7129 65.2743 30.6569C65.3186 30.5993 65.308 30.4242 65.3114 30.3641C65.3235 30.1469 65.3441 29.9044 65.2969 29.6898C65.2857 29.6383 65.258 29.5327 65.1918 29.5207C65.0416 29.4934 65.1651 29.8294 65.198 29.9785C65.2828 30.3629 65.4461 30.716 65.6496 31.0507C65.6589 31.0661 65.6953 31.1033 65.6908 31.0858C65.6586 30.9606 65.5961 30.8324 65.5403 30.7208C65.2908 30.2218 64.9904 29.7466 64.668 29.2918C64.6152 29.2172 64.4635 29.0072 64.4742 29.098C64.5124 29.4227 64.7229 29.7275 64.901 29.9888C65.0581 30.2192 65.2859 30.637 65.5341 30.7971C65.5944 30.836 65.5831 30.6584 65.5794 30.5868C65.5626 30.2514 65.4358 29.941 65.332 29.6258C65.287 29.4891 65.2543 29.3904 65.2248 29.2547C65.2218 29.2412 65.212 29.2026 65.2206 29.2134C65.2342 29.2304 65.2352 29.2544 65.2413 29.2753C65.3586 29.6757 65.4601 30.0805 65.5588 30.4857C65.5842 30.5898 65.628 30.9896 65.7403 31.061C65.9152 31.1724 65.6566 30.651 65.5691 30.463C65.381 30.0583 65.1679 29.6428 64.9258 29.267C64.802 29.0749 65.0556 29.7086 65.1629 29.9104C65.23 30.0367 65.4079 30.4118 65.398 30.2692C65.3784 29.9888 65.1699 29.6599 65.0598 29.4114C64.923 29.1026 64.7708 28.7927 64.7051 28.4587C64.693 28.3972 64.6717 28.2283 64.7175 28.2711C64.915 28.4554 65.0528 28.7879 65.1897 29.0113C65.3358 29.2497 65.4753 29.5304 65.664 29.7413C65.685 29.7648 65.7118 29.7816 65.7444 29.7723C65.7885 29.7597 65.4647 29.3002 65.4434 29.2712C65.4226 29.243 65.2357 28.937 65.2536 29.1598C65.2758 29.4353 65.3637 29.6979 65.4681 29.9517C65.469 29.9539 65.6488 30.3866 65.6619 30.3806C65.7655 30.3328 65.6307 29.8319 65.6166 29.7702C65.6133 29.7558 65.506 29.4618 65.5712 29.4444C65.709 29.4076 65.9149 29.4391 66.0517 29.4444C66.3196 29.4548 66.5602 29.4805 66.7693 29.663C66.9343 29.807 66.9741 29.9294 66.9198 29.6135C66.9019 29.5096 66.753 28.7464 66.8414 29.3289C66.9073 29.7628 66.9149 30.3241 67.093 30.7311C67.3067 31.2196 66.7838 29.7106 66.627 29.2011C66.5125 28.8291 66.8897 29.9349 67.0538 30.2878C67.2005 30.6032 66.6848 30.2681 66.5734 30.2197C66.5371 30.204 65.9764 29.8836 65.9589 30.0589C65.9301 30.3462 66.1601 31.3291 66.5569 31.3291C66.6035 31.3291 66.5536 31.229 66.5239 31.193C66.3242 30.9515 66.0444 30.743 65.765 30.6033C65.356 30.3987 65.9581 31.3265 66.029 31.424C66.2472 31.7241 66.3098 31.3718 66.2805 31.1559C66.2481 30.9164 66.1778 30.6457 66.0207 30.4548C66.0074 30.4386 65.9671 30.4008 65.9671 30.4218C65.9671 30.4835 66.0687 30.6287 66.0888 30.6692C66.1173 30.7271 66.4065 31.44 66.4496 31.2796C66.4985 31.0981 66.4733 30.8717 66.4661 30.6878C66.463 30.6077 66.4569 30.4378 66.4331 30.3476C66.409 30.2558 66.4144 30.5384 66.429 30.6321C66.4549 30.7979 66.5712 31.6516 66.9239 31.5106C67.1127 31.4351 67.0822 31.0391 67.0848 30.892C67.086 30.8198 67.011 30.4133 67.0889 30.3496C67.225 30.2383 67.3088 30.1573 67.2827 29.962C67.2508 29.7223 67.1586 29.8349 67.1384 29.997" stroke="black" stroke-width="0.5" stroke-linecap="round"/>
<path d="M66.4111 31.4304C66.5532 31.4304 66.6957 31.4293 66.8376 31.4386C66.9898 31.4487 67.1219 31.4843 67.2653 31.5368C67.4905 31.6193 67.714 31.7101 67.9333 31.8072C68.1265 31.8928 68.3118 31.9938 68.5018 32.0859C68.5301 32.0996 68.731 32.1694 68.6024 32.1651C68.3554 32.157 68.114 32.0823 67.8759 32.0231C67.6274 31.9614 67.3811 31.8952 67.1346 31.8261C67.0834 31.8118 66.7066 31.6945 66.8997 31.867C67.0894 32.0363 67.3463 32.1426 67.5801 32.2338C67.6867 32.2754 67.7958 32.3138 67.9067 32.3426C67.93 32.3487 67.99 32.3675 67.9788 32.3462C67.9241 32.2412 67.7113 32.1795 67.6144 32.1438C67.3731 32.0549 67.1213 31.9993 66.8772 31.919C66.6768 31.8531 66.4742 31.785 66.2756 31.7143C66.1762 31.679 66.4221 31.715 66.4282 31.7161C66.6529 31.7582 66.8597 31.8558 67.0713 31.9385C67.1776 31.9801 67.2867 32.0265 67.3979 32.0539C67.4151 32.0582 67.4251 32.0582 67.4073 32.0409C67.3551 31.9901 67.293 31.9486 67.2369 31.9025C67.075 31.7691 66.9369 31.618 66.8205 31.4434C66.7445 31.3294 66.6721 31.209 66.6512 31.0718C66.6399 30.9975 66.7404 31.0097 66.7932 31.0139C67.1218 31.0394 67.3708 31.2529 67.625 31.4386C67.7005 31.4938 67.7213 31.4783 67.7008 31.3777C67.6735 31.2441 67.6049 31.1262 67.5339 31.0115C67.4299 30.8433 67.316 30.6799 67.2032 30.5175C67.0999 30.3687 66.9942 30.1949 66.8488 30.0815C66.8066 30.0485 66.7755 30.0546 66.7755 30.1134C66.7755 30.2456 66.8752 30.3649 66.9524 30.4625C67.0719 30.6136 67.2068 30.7659 67.3712 30.8695C67.3932 30.8833 67.4175 30.8983 67.4121 30.86C67.3863 30.6795 67.1887 30.5129 67.0642 30.3974C66.9927 30.3311 66.9039 30.2833 66.8335 30.2187C66.8315 30.2169 66.8656 30.2257 66.869 30.227" stroke="black" stroke-width="0.5" stroke-linecap="round"/>
<path d="M68.743 31.6327C68.7838 31.6589 68.8674 31.651 68.911 31.6539C69.1059 31.667 69.3001 31.6857 69.4914 31.7273C69.7711 31.7881 70.0418 31.8836 70.3178 31.958C70.3446 31.9653 70.3314 31.9628 70.3107 31.9628C70.1079 31.9628 69.9048 31.9606 69.702 31.9645C69.542 31.9677 69.3789 31.9705 69.2228 32.0095C69.2087 32.013 69.1187 32.0278 69.1666 32.0551C69.4037 32.1902 69.7144 32.2299 69.9818 32.2544C70.023 32.2582 70.0641 32.2609 70.1055 32.2609C70.1825 32.2609 69.9534 32.2345 69.8789 32.2148C69.4464 32.1007 69.0105 31.9419 68.559 31.9314C68.5227 31.9306 68.4864 31.9308 68.4501 31.9308C68.4364 31.9308 68.4514 31.9306 68.4821 31.9415C68.6198 31.9901 68.755 32.047 68.8897 32.1036C69.0269 32.1612 69.1637 32.2195 69.292 32.2953C69.303 32.3018 69.3332 32.3078 69.3239 32.3166C69.3193 32.321 69.3114 32.3194 69.305 32.3201C69.2508 32.3261 69.1883 32.328 69.1358 32.3296C68.9471 32.3353 68.7578 32.3379 68.569 32.3349C68.5207 32.3341 68.446 32.3134 68.3986 32.3272C68.3784 32.3331 68.4289 32.358 68.4483 32.3663C68.5862 32.4246 68.7294 32.4728 68.8713 32.5201C68.939 32.5426 69.025 32.5596 69.0855 32.5999C69.115 32.6196 68.8962 32.6111 68.8826 32.6088C68.7433 32.5853 68.6075 32.539 68.472 32.5C68.4301 32.4879 68.3707 32.4709 68.3276 32.4574C68.3075 32.451 68.2492 32.4373 68.2697 32.4319C68.4058 32.3964 68.582 32.4172 68.7086 32.4739C68.8657 32.5443 69.0094 32.6432 69.1689 32.707C69.321 32.7679 69.4661 32.8067 69.628 32.8277C69.8719 32.8594 70.1039 32.8873 70.3498 32.8892C70.5292 32.8906 70.6917 32.9488 70.8669 32.978C70.9692 32.995 71.077 32.991 71.1804 33.0005C71.2834 33.0099 71.3919 33.0153 71.4904 33.0496C71.6012 33.0881 71.6883 33.1614 71.8052 33.1874C71.9668 33.2233 72.1093 33.2513 72.2761 33.2513C72.373 33.2513 72.4806 33.2372 72.5749 33.262C72.6685 33.2866 72.7668 33.3017 72.8618 33.3211C72.9656 33.3424 73.0879 33.3409 73.1931 33.346C73.3253 33.3523 73.4583 33.3454 73.5907 33.3495C73.8531 33.3577 74.1183 33.4033 74.3799 33.43C74.5772 33.4501 74.7499 33.5738 74.9466 33.5921C75.0826 33.6047 75.2258 33.614 75.359 33.6406C75.4191 33.6526 75.4724 33.6494 75.5329 33.6566C75.5713 33.6611 75.6148 33.6742 75.6518 33.6856C75.7427 33.7135 75.4613 33.6821 75.3673 33.6684C75.0794 33.6264 74.7971 33.5466 74.5088 33.5022C74.2284 33.4589 73.947 33.429 73.6776 33.3353C73.46 33.2596 73.2462 33.1724 73.031 33.0904C72.879 33.0325 72.7192 32.9821 72.5825 32.8916C72.3821 32.7589 72.2189 32.6067 71.9933 32.5106C71.8251 32.439 71.6493 32.388 71.4774 32.3266C71.3661 32.2869 71.2592 32.2365 71.1461 32.2018C70.9012 32.1267 70.6571 32.0456 70.4143 31.964C70.2671 31.9144 70.1209 31.8943 69.9723 31.8539C69.858 31.8229 69.7593 31.759 69.6475 31.7226C69.5078 31.677 69.3951 31.6047 69.3026 31.4883C69.189 31.3453 69.0881 31.1787 68.95 31.0576C68.8412 30.9621 68.7154 30.8695 68.5891 30.7985C68.4472 30.7186 68.2875 30.6998 68.133 30.6571C67.9572 30.6084 67.7644 30.578 67.6071 30.4826C67.4931 30.4134 67.3845 30.3392 67.2781 30.2589C67.1809 30.1856 67.0711 30.1479 66.9906 30.0519C66.9407 29.9923 66.9095 29.9075 66.8267 29.8868C66.6819 29.8506 66.5197 29.8415 66.3712 29.8229C66.3543 29.8208 66.3819 29.8421 66.3842 29.8448C66.4772 29.9523 66.5704 30.0598 66.6628 30.1678C66.8561 30.3935 67.0694 30.602 67.2769 30.8144C67.5337 31.0773 67.825 31.2669 68.1774 31.3747C68.3374 31.4237 68.5364 31.4537 68.6779 31.5481C68.7383 31.5883 68.7985 31.622 68.8708 31.622C68.9685 31.622 69.063 31.6301 69.1583 31.6539" stroke="black" stroke-linecap="round"/>
<path d="M77.585 34.0035C77.7344 34.0699 77.9696 34.0301 78.1314 34.0301C78.3136 34.0301 78.4957 34.0301 78.6779 34.0301" stroke="black" stroke-linecap="round"/>
<path d="M83.3853 34.4143C83.4012 34.5576 84.0692 34.6356 84.2207 34.6573C84.5175 34.6997 84.8356 34.707 85.1326 34.761C85.4284 34.8148 85.7335 34.9388 86.0391 34.9549C86.3456 34.971 86.6957 35.033 86.9619 35.2006C87.5038 35.5418 88.2215 35.4902 88.7967 35.7139C89.1027 35.8329 89.4583 35.833 89.7632 35.9269C90.0195 36.0057 90.3788 36.0145 90.5987 36.1944C91.0375 36.5534 91.7479 36.5364 92.2068 36.8934C92.3103 36.9739 92.421 37.012 92.5263 37.1173C92.6412 37.2322 92.8024 37.2582 92.9194 37.363C93.091 37.5165 93.3268 37.586 93.4983 37.7452C93.6441 37.8806 93.7762 37.9486 93.9624 38.0128C94.3903 38.1603 94.7442 38.4457 95.1064 38.6872C95.3515 38.8506 95.5352 39.0619 95.7999 39.1841C96.1763 39.3578 96.5735 39.5498 96.9603 39.6837C97.0799 39.7251 97.2289 39.8568 97.3425 39.8694C97.496 39.8864 97.5822 40.0575 97.7357 40.066C98.3287 40.0989 98.9012 40.2134 99.5022 40.2134C99.9618 40.2134 100.421 40.2134 100.881 40.2134C101.146 40.2134 101.405 40.2167 101.667 40.1752C101.951 40.1305 102.29 40.1331 102.563 40.0551C102.772 39.9954 102.963 39.9225 103.166 39.8476C103.324 39.7895 103.501 39.6613 103.658 39.6264C103.999 39.5505 104.159 39.1361 104.466 39.0339C104.618 38.9832 104.681 38.7998 104.763 38.679C104.851 38.5496 104.991 38.4638 105.08 38.335C105.271 38.0597 105.51 37.8449 105.746 37.6087C106.373 36.9818 106.681 36.1842 106.975 35.3753C107.088 35.0633 107.228 34.7685 107.368 34.4634C107.534 34.1031 107.761 33.8316 107.761 33.4314C107.761 33.1321 107.909 32.8188 107.909 32.5222C107.909 31.9966 107.958 31.4787 107.958 30.955C107.958 30.6892 108.045 30.4072 108.056 30.1277C108.067 29.8525 108.154 29.5916 108.154 29.3032" stroke="black" stroke-linecap="round"/>
<path d="M108.155 29.4015C108.155 28.8619 108.056 28.3704 108.056 27.8397C108.056 27.5794 108.105 27.3407 108.105 27.0671C108.105 26.8992 108.207 26.7648 108.242 26.6002C108.286 26.3913 108.302 26.1518 108.302 25.9367C108.302 25.6258 108.155 25.3716 108.155 25.0658C108.155 24.7855 108.176 24.4993 108.067 24.2412C108.025 24.1409 108.03 23.9387 108.01 23.8262C107.99 23.717 107.958 23.6451 107.958 23.5286C107.958 22.9038 107.529 22.3772 107.516 21.7457C107.511 21.5148 107.417 21.3222 107.417 21.0959C107.417 20.9655 107.425 20.8329 107.417 20.7028C107.405 20.4757 107.27 20.2109 107.27 19.9902C107.27 19.7809 107.229 19.4175 107.101 19.253C107.039 19.1737 107.023 18.9737 106.986 18.8735C106.933 18.7296 106.862 18.5392 106.779 18.4039C106.637 18.1745 106.583 17.9207 106.495 17.6667C106.453 17.5466 106.357 17.4425 106.334 17.3363C106.318 17.2674 106.242 17.2397 106.238 17.1643C106.229 16.9851 106.162 16.8245 106.118 16.651C106.062 16.4342 106.077 16.2434 105.845 16.2305C105.765 16.2261 105.599 16.0888 105.599 16.0094C105.599 15.8201 105.402 15.5916 105.304 15.4442" stroke="black" stroke-linecap="round"/>
<path d="M105.206 18.6878C105.85 18.1722 106.59 20.8118 106.653 21.1997C106.704 21.5147 106.627 21.3963 106.495 21.1587C106.039 20.3411 105.857 19.4236 105.719 18.5076C105.691 18.3187 105.57 18.0221 105.561 18.4202C105.55 18.8844 105.693 19.3601 105.834 19.7963C105.912 20.0368 106.073 20.6941 106.186 20.468C106.328 20.1843 106.163 19.6619 106.101 19.3868C105.996 18.913 105.876 18.4201 105.684 17.9725C105.656 17.9077 105.545 17.7319 105.561 17.8005C105.638 18.1271 105.848 18.4315 105.959 18.7479C106.087 19.1081 106.145 19.482 106.238 19.8509C106.254 19.9151 106.299 20.1823 106.374 20.2277C106.509 20.3086 106.362 19.9122 106.331 19.7581C106.235 19.2824 106.108 18.8235 106.093 18.3356C106.093 18.3347 106.09 17.8692 106.09 18.0817C106.09 18.5868 106.09 19.0919 106.09 19.597C106.09 20.0348 106.077 20.4764 106.118 20.913C106.127 21.0162 106.119 21.3101 106.238 21.3799C106.295 21.4137 106.248 20.5306 106.238 20.4461C106.225 20.3392 106.227 20.0587 106.151 20.1349C106.113 20.1723 106.14 20.2403 106.14 20.2932C106.137 20.69 106.14 21.0869 106.14 21.4836C106.14 23.1015 106.053 24.7444 106.151 26.3599C106.151 26.363 106.163 26.6846 106.211 26.6766C106.454 26.6361 106.217 25.0767 106.216 25.0712C106.118 24.1415 105.934 23.2337 105.763 22.3164C105.73 22.139 105.662 21.6066 105.651 21.7867C105.572 23.0417 105.831 24.2432 106.314 25.3989C106.396 25.5943 106.874 26.5458 107.095 25.9395C107.498 24.8345 107.216 23.3725 107.005 22.2508C107.005 22.2501 106.899 21.8775 106.972 22.1225C107.135 22.6686 107.303 23.2131 107.461 23.7607C107.607 24.2656 107.728 24.7865 107.923 25.276C108.089 25.6963 108.03 25.2699 107.991 25.0767C107.82 24.245 107.546 23.4472 107.21 22.6686C107.175 22.5881 106.981 21.987 106.828 21.9314C106.711 21.8891 106.436 23.5691 106.418 23.7143C106.417 23.727 106.343 24.1268 106.402 24.1511C106.547 24.2116 106.734 23.8623 106.762 23.788C107.171 22.728 106.473 21.4553 106.298 20.4133C106.257 20.1695 106.162 20.3144 106.107 20.4898C105.924 21.0729 105.867 21.699 105.796 22.3027C105.73 22.8631 105.512 23.6776 105.727 24.233C105.77 24.3423 105.859 24.4234 105.979 24.3695C106.255 24.2448 106.313 23.8501 106.344 23.5914C106.422 22.9593 106.348 22.3296 106.121 21.7348C106.008 21.44 105.777 20.7881 105.463 20.6154C105.384 20.5723 105.402 20.7879 105.402 20.8775C105.407 21.7175 105.43 22.5778 105.599 23.403C105.616 23.4841 105.685 23.9366 105.828 23.9818C106.049 24.0515 106.342 23.7008 106.418 23.5477C106.752 22.8798 106.422 21.7313 105.779 21.3362C105.541 21.19 105.505 21.8475 105.501 21.8768C105.351 22.9564 105.333 24.068 105.271 25.1559C105.252 25.4978 105.284 25.8007 105.654 25.9149C105.823 25.9673 106.121 26.0047 106.295 25.9449C106.489 25.8785 106.478 25.5332 106.451 25.3825C106.355 24.8511 105.846 24.4055 105.452 24.0774C105.32 23.9681 105.123 23.7949 105.069 24.061C104.975 24.525 104.995 25.0633 105.086 25.5245C105.135 25.7754 105.525 27.1841 106.039 26.5538C106.274 26.265 106.351 25.7661 106.284 25.4098C106.224 25.0866 106.082 24.8023 105.94 24.5088C105.868 24.3596 105.799 24.2083 105.714 24.0665C105.674 24.0006 105.643 23.8988 105.566 23.889C105.404 23.8682 105.521 25.523 105.542 25.6364C105.639 26.1702 105.966 26.9929 106.576 27.1299C107.062 27.2388 107.083 26.7268 107.062 26.4036C107.043 26.0986 106.98 25.8106 106.822 25.5463C106.655 25.2659 106.736 25.7907 106.74 25.8521C106.785 26.5016 106.88 27.1486 106.948 27.7961C106.987 28.1759 106.991 28.6268 107.166 28.9783C107.178 29.0028 107.247 29.1264 107.295 29.0684C107.522 28.79 107.282 27.8895 107.221 27.6159C107.103 27.0928 106.888 26.6228 106.675 26.136C106.654 26.0875 106.636 25.9304 106.631 25.9831C106.56 26.7617 106.473 27.6643 106.598 28.4377C106.691 29.0107 107.57 28.8435 107.641 28.3367C107.693 27.9692 107.529 27.5873 107.374 27.2664C107.249 27.0082 106.937 26.6733 106.885 26.3872C106.879 26.3534 107.271 26.5379 107.338 26.5483C107.616 26.5911 107.357 25.97 107.325 25.8958C107.311 25.8645 107.061 25.2791 106.975 25.3716C106.816 25.5435 106.878 26.0533 106.877 26.2562C106.876 26.533 106.718 27.7202 107.196 27.6787C107.815 27.6248 107.266 25.4967 107.062 26.7203C106.896 27.7228 106.832 28.7494 106.762 29.7619C106.718 30.4006 106.647 31.0691 106.691 31.7113C106.698 31.8129 106.758 31.9924 106.882 31.8314C107.001 31.6782 107.038 31.4507 107.041 31.269C107.052 30.5703 106.848 29.8783 106.645 29.2185C106.558 28.9372 106.304 28.095 106.35 28.3858C106.448 29.0065 106.529 29.6288 106.571 30.2561C106.589 30.5317 106.462 31.8859 107.095 31.5912C107.842 31.2439 107.411 29.9208 107.248 29.3687C107.128 28.9614 107.032 28.2985 106.773 27.949C106.722 27.8799 106.746 28.1199 106.751 28.2056C106.775 28.5919 106.82 28.9771 106.847 29.3633C106.852 29.4374 106.844 30.0603 106.904 30.0431C106.973 30.0233 106.993 30.0121 107.03 29.9366C107.18 29.6281 107.299 29.2777 107.412 28.9537C107.417 28.9382 107.502 28.5302 107.483 28.7025C107.408 29.3986 107.289 30.0913 107.183 30.783C107.139 31.0651 107.212 31.3767 106.899 31.2199C106.567 31.0538 106.55 33.2558 106.53 33.5679C106.53 33.5709 106.474 33.944 106.563 33.7945C106.697 33.5672 106.708 33.2293 106.718 32.9754C106.727 32.7602 106.704 32.1275 106.642 32.3338C106.572 32.5657 106.632 32.9083 106.631 33.142C106.629 33.5942 106.615 34.0446 106.593 34.4962C106.589 34.5707 106.531 34.8664 106.615 34.9331C106.762 35.0512 106.775 34.6917 106.776 34.6573C106.795 34.043 106.748 33.4265 106.85 32.8171C106.889 32.5788 106.71 32.6034 106.593 32.7816C106.394 33.0838 107.142 32.7793 107.226 32.7324C107.3 32.6915 107.468 32.5019 107.417 32.5686C107.278 32.752 107.198 33.0287 107.133 33.2457C106.938 33.9068 106.725 34.5982 106.435 35.2279C106.304 35.51 106.174 35.8605 106.142 36.1753C106.114 36.4549 105.862 36.7342 105.746 36.9944C105.586 37.3549 105.021 37.5331 104.693 37.6825C104.281 37.8695 103.894 38.1101 103.609 38.4906C103.464 38.6834 103.096 38.7837 102.874 38.8592C102.599 38.9529 102.331 39.0649 102.066 39.1787C101.521 39.4124 100.82 39.5746 100.22 39.5746C99.5742 39.5746 98.928 39.5746 98.2818 39.5746C97.9586 39.5746 97.6902 39.4077 97.3809 39.3179C96.9917 39.2049 96.6635 39.1209 96.316 38.8892C96.0308 38.6991 95.6941 38.6524 95.3823 38.5152C95.0598 38.3733 94.6276 38.1949 94.3721 37.9528C94.036 37.6344 93.678 37.3519 93.2363 37.1883C92.7071 36.9923 92.1664 36.8 91.6909 36.5002C91.2705 36.2352 90.9435 35.8111 90.5087 35.5719C90.3694 35.4953 90.2395 35.5126 90.091 35.4928C89.7209 35.4434 89.3415 35.3618 88.9715 35.2989C88.6413 35.2428 88.3765 35.2127 88.076 35.0805C87.9895 35.0424 87.8084 35.0465 87.8084 34.9303C87.8084 34.8197 88.4839 34.7784 88.5948 34.7583C89.0928 34.6683 89.6145 34.7092 90.1183 34.7092C90.2972 34.7092 90.4866 34.7256 90.6643 34.6982C90.8128 34.6754 90.3631 34.6972 90.2138 34.7146C89.6285 34.7829 89.0444 34.8302 88.4555 34.8539C88.2822 34.8609 87.7105 34.7936 87.5463 34.903C87.4766 34.9495 87.714 34.9017 87.7975 34.8948C88.105 34.8695 88.2798 34.8421 88.603 34.7993C89.6475 34.6607 90.6959 34.5551 91.7401 34.4143C92.2078 34.3512 92.6954 34.3068 93.1544 34.1904C93.4168 34.1239 92.6133 34.2278 92.3462 34.2723C91.8122 34.3613 91.2662 34.4562 90.7408 34.589C90.2551 34.7119 91.7445 34.5813 92.2424 34.5262C92.928 34.4504 93.6155 34.3432 94.2902 34.1986C94.4636 34.1614 94.96 34.0655 94.7898 34.0157C94.2951 33.8709 93.7296 33.8336 93.2199 33.7863C92.5594 33.725 91.8089 33.6665 91.2104 34.0157C91.0463 34.1114 90.9323 34.2828 91.1667 34.3925C91.7946 34.6864 92.7194 34.5678 93.381 34.5017C93.9521 34.4446 94.7002 34.3538 95.1311 33.9228" stroke="black" stroke-linecap="round"/>
<path d="M103.191 25.5682C103.214 25.844 103.273 26.1112 103.284 26.39C103.299 26.8025 103.246 27.2339 103.311 27.6432C103.423 28.3548 104.517 28.0541 104.987 27.9053C106.194 27.5235 105.912 26.0122 105.402 25.1532C105.1 24.6434 104.822 24.337 104.245 24.5853C103.859 24.751 103.819 25.3678 103.89 25.732C103.899 25.778 103.964 25.8601 104.005 25.7866C104.185 25.4591 104.125 24.9013 104.059 24.558C103.977 24.1341 103.739 23.7693 103.644 23.3539C103.595 23.1397 103.659 23.335 103.688 23.4167C103.901 24.0135 104.038 24.5436 104.065 25.1859C104.093 25.8868 104.079 26.5794 104.163 27.2773C104.248 27.9828 104.592 28.6844 104.507 29.4015C104.461 29.7876 104.169 30.0244 103.873 30.2452C103.379 30.6152 102.825 30.9329 102.241 31.138C101.373 31.4424 100.431 31.4959 99.5268 31.613C98.9001 31.6942 98.2497 31.7108 97.6293 31.8315C97.5336 31.8501 97.5683 31.8532 97.6047 31.8397C97.8526 31.7478 98.084 31.5904 98.2928 31.4328C99.0582 30.8553 99.81 30.1832 100.485 29.5025C100.645 29.3414 101.194 28.834 100.843 28.577C100.507 28.3307 99.8108 28.2855 99.6361 28.7244C99.2566 29.6775 101.264 29.5696 101.777 29.5053C102.03 29.4735 102.741 29.3969 102.847 29.0793C102.899 28.9217 102.735 28.7734 102.65 28.6643" stroke="black" stroke-width="4" stroke-linecap="round"/>
<path d="M100.488 29.4998C100.333 29.5169 100.136 29.5975 99.9907 29.6472C99.2843 29.8892 98.6024 30.2263 97.9212 30.5291C97.0025 30.9374 95.3663 31.0406 95.1881 32.3174C95.1253 32.768 95.8381 32.7797 96.1465 32.8116C96.4367 32.8416 96.7288 32.8416 97.0202 32.8416C97.2252 32.8416 97.2342 32.8296 97.0147 32.7488C96.2205 32.4565 95.2741 32.1497 94.4127 32.2574C94.0409 32.3038 94.4252 32.6705 94.5411 32.7597C94.6912 32.8753 95.3045 33.1155 94.9069 33.2184C94.2932 33.3773 93.6893 33.5724 93.0804 33.7481C93.0003 33.7712 92.5813 33.8761 92.6353 34.032C92.6677 34.1257 92.8506 34.3759 92.9411 34.4088C93.3098 34.5429 93.0124 34.5126 92.7473 34.5126C92.6208 34.5126 92.4943 34.5126 92.3677 34.5126C92.2162 34.5126 92.6218 34.5126 92.6544 34.5126C93.2711 34.5126 93.8061 34.7237 94.3936 34.8457C94.6354 34.8959 94.952 34.9511 95.18 35.0423C95.3749 35.1202 95.6116 35.1737 95.8188 35.2033C96.055 35.2371 95.4524 35.2951 95.4257 35.2989C95.1285 35.3406 94.8136 35.4208 94.511 35.3945C93.9806 35.3483 93.4417 35.0266 92.9411 34.8566C92.6811 34.7683 92.1548 34.6109 92.1548 34.6109C92.1548 34.6109 92.5247 34.623 92.7036 34.6655C93.2089 34.7854 93.6964 34.9752 94.1916 35.1296C94.6242 35.2646 94.899 35.4415 95.2509 35.703C95.5787 35.9465 95.8265 36.2095 96.2393 36.2845C96.4426 36.3215 96.5573 36.5275 96.8017 36.5275C96.9771 36.5275 97.2609 36.6098 97.4297 36.664C98.048 36.8628 98.6343 37.019 99.2836 37.019C99.7851 37.019 100.262 36.9207 100.758 36.9207C100.976 36.9207 101.156 36.9043 101.361 36.8333C101.736 36.7037 101.86 36.3248 102.219 36.1944C102.694 36.0215 103.566 35.6602 103.685 35.1269C103.756 34.8084 103.918 34.5096 103.966 34.1795C104.038 33.6817 104.107 33.3041 104.457 32.9235C104.738 32.6192 104.911 32.1638 104.911 31.7495C104.911 31.5402 104.899 31.4032 105.009 31.2198" stroke="black" stroke-width="4" stroke-linecap="round"/>
<path d="M98.9151 33.7262C99.7786 33.676 100.63 33.5297 101.495 33.5297C101.834 33.5297 101.668 33.5297 101.432 33.5624C100.889 33.6379 100.34 33.6579 99.797 33.7317C99.5381 33.7669 99.2855 33.834 99.027 33.8709C98.8696 33.8934 98.7176 33.9209 99.0079 33.9228C99.8615 33.9286 100.715 33.9228 101.569 33.9228" stroke="black" stroke-width="4" stroke-linecap="round"/>
<path d="M102.011 33.8737C102.402 33.8402 104.37 33.0656 104.37 34.0703C104.37 34.4347 104.504 34.6088 104.223 34.9057C104.043 35.0954 103.943 35.3203 103.818 35.5446C103.552 36.0239 102.757 35.9805 102.366 36.3419C102.204 36.4916 101.993 36.7241 101.765 36.7241C101.639 36.7241 101.552 36.7442 101.432 36.7842C101.308 36.8257 101.166 36.7941 101.05 36.847C100.754 36.9814 100.468 36.9646 100.168 37.0436C99.8539 37.1263 99.5102 37.1664 99.1879 37.1664C98.89 37.1664 98.6371 37.068 98.3524 37.0163C98.1252 36.9749 97.8799 36.8224 97.6617 36.8224C97.2064 36.8224 96.7769 36.6138 96.3348 36.5275C95.3793 36.3411 94.4051 35.9604 93.5171 35.5719C93.0168 35.353 92.3136 35.0052 92.0837 34.488C91.9615 34.2131 91.4074 34.2904 91.2974 34.0703" stroke="black" stroke-width="4" stroke-linecap="round"/>
<path d="M99.4555 39.0339C100.245 38.7239 101.107 38.7391 101.94 38.7391C101.977 38.7391 101.663 38.7522 101.593 38.7691C101.389 38.8188 101.157 38.8833 100.963 38.963C100.778 39.0385 100.979 39.0925 101.064 39.1131C101.384 39.191 101.666 39.2763 102 39.2797C102.24 39.2821 102.958 39.2797 102.718 39.2797C102.517 39.2797 102.264 39.4504 102.085 39.55C101.912 39.6458 101.581 39.4724 101.421 39.4271C100.632 39.203 99.8136 39.1399 99.0132 38.9684C98.7364 38.9091 98.4318 38.7882 98.1504 38.7882C98.0491 38.7882 97.3725 38.8147 97.588 38.8865" stroke="black" stroke-linecap="round"/>
<rect x="94" y="55" width="6" height="4" fill="black"/>
<path d="M99.9468 55.0997C100.097 55.0997 100.226 55.1994 100.366 55.2492C100.539 55.3113 100.68 55.3794 100.808 55.5118C101.048 55.7612 101.258 56.0427 101.474 56.3128C101.563 56.4237 101.631 56.5684 101.733 56.665C101.842 56.7681 102.01 56.7958 102.11 56.9093C102.207 57.0193 102.272 57.1202 102.398 57.2068C102.572 57.3266 102.666 57.5366 102.847 57.6538C102.962 57.729 103.094 57.857 103.214 57.9114C103.423 58.0061 103.532 58.2221 103.752 58.3069C103.935 58.3773 104.152 58.5098 104.345 58.5395C104.474 58.5594 104.558 58.6592 104.688 58.6592C104.794 58.6592 104.777 58.6645 104.703 58.6957C104.592 58.7425 104.471 58.7303 104.354 58.7788C104.202 58.8415 103.987 58.8985 103.819 58.8985C103.634 58.8985 103.452 58.9284 103.264 58.9284C102.775 58.9284 102.321 58.759 101.848 58.6592C101.361 58.5563 100.822 58.4797 100.326 58.4797C100.205 58.4797 100.08 58.469 99.9617 58.4946C99.9112 58.5056 99.8443 58.4997 99.7989 58.5262C99.7231 58.5704 99.9759 58.6422 100.007 58.6525C100.23 58.7281 100.552 58.7019 100.784 58.6824C101.184 58.6488 101.571 58.5287 101.967 58.4863C101.993 58.4836 102.237 58.4389 102.09 58.4564C102.061 58.4599 101.909 58.4638 101.898 58.4963C101.894 58.5076 101.916 58.5129 101.928 58.5163C101.987 58.5333 102.137 58.5506 102.19 58.5561C102.193 58.5564 102.49 58.6039 102.429 58.5395C102.395 58.5034 102.371 58.4797 102.32 58.4797C102.123 58.4797 102.045 58.3855 101.996 58.2105C101.968 58.1135 101.932 58.0156 101.923 57.9147C101.916 57.8457 101.938 57.76 101.908 57.6953C101.788 57.4385 101.303 57.2925 101.067 57.1702C100.9 57.084 100.745 56.9003 100.633 56.7548C100.468 56.54 100.423 56.2695 100.261 56.0585C100.232 56.021 99.9452 55.8088 99.9983 55.9738C100.04 56.1034 100.135 56.2132 100.184 56.341C100.237 56.4764 100.239 56.5991 100.249 56.7415C100.275 57.0905 100.296 57.4286 100.306 57.7784C100.307 57.8128 100.332 57.9462 100.372 57.9413C100.505 57.9247 100.268 57.3526 100.249 57.2932C100.186 57.0968 100.197 57.1446 100.267 57.2882C100.37 57.4969 100.487 57.6942 100.625 57.8815C100.746 58.0466 100.845 58.1669 101.05 58.2038C101.123 58.217 101.188 58.2423 101.256 58.2703C101.336 58.303 101.517 58.4613 101.605 58.3733C101.639 58.3399 101.622 58.2521 101.62 58.2138C101.609 57.9841 101.537 57.8013 101.429 57.6006C101.249 57.2663 101.189 56.8972 101.057 56.5437C100.949 56.2566 100.831 55.9243 100.611 55.7046C100.466 55.5596 100.295 55.5385 100.143 55.4137C100.078 55.361 100.046 55.2664 99.9617 55.2476C99.9082 55.2357 99.8212 55.1901 99.7673 55.1661C99.6794 55.1271 99.3544 55.1236 99.2588 55.1661C99.1377 55.2199 98.9626 55.1745 98.855 55.2343C98.7583 55.288 98.5529 55.2492 98.4445 55.2492C98.2385 55.2492 98.0324 55.2492 97.8263 55.2492C97.5849 55.2492 97.3454 55.2591 97.1068 55.2193C96.9872 55.1994 96.8974 55.1595 96.7745 55.1595C96.5834 55.1595 96.3922 55.1595 96.2011 55.1595C95.9391 55.1595 95.6771 55.1595 95.4151 55.1595C95.2705 55.1595 94.9363 55.1595 95.3104 55.1595" stroke="black" stroke-linecap="round"/>
<path d="M100.934 55.4885C101.158 55.5947 101.301 55.7622 101.459 55.9538C101.675 56.2157 101.882 56.4528 102.071 56.7382C102.486 57.3652 103.012 57.9519 103.704 58.2853C104.079 58.4656 104.488 58.5409 104.821 58.8071C104.911 58.8792 105.112 58.9659 105.225 58.9865C105.291 58.9985 105.369 59.0123 105.391 59.0779" stroke="black" stroke-linecap="round"/>
<line x1="182.688" y1="67.6096" x2="192.688" y2="59.6096" stroke="white"/>
<path d="M130.172 75.8328C127.445 76.5231 125.101 78.3931 123.741 80.9629C122.382 83.5321 122.155 86.5222 123.119 89.1645C124.02 91.6346 125.896 93.6684 128.403 94.8926L131.82 96.3901C135.259 97.9269 136.572 96.3137 136.977 95.5493C137.123 95.2722 137.235 94.9575 137.31 94.6174C137.642 94.742 138.186 95.0342 138.609 95.2616L139.198 95.5769C139.624 95.809 140.269 96.1605 140.954 95.979C141.238 95.9043 141.636 95.7034 141.916 95.1743L145.716 87.9901C145.996 87.461 145.938 87.0201 145.841 86.743C145.605 86.075 144.952 85.7392 144.52 85.5172L143.929 85.2089C143.502 84.9863 142.954 84.7012 142.664 84.4959C142.905 84.2401 143.101 83.9722 143.247 83.6962C143.651 82.9318 144.246 80.9394 141.046 78.9632L137.913 76.998L137.88 76.9781C135.457 75.5947 132.72 75.1882 130.172 75.8328ZM137.023 78.4228L140.145 80.3799C141.557 81.2524 142.066 82.0861 141.659 82.8562C141.565 83.0337 141.425 83.2139 141.238 83.3977C140.796 83.8394 140.663 84.3546 140.84 84.8616C141.109 85.6329 141.967 86.0802 143.155 86.6982L143.756 87.0123C143.854 87.0631 144 87.1378 144.101 87.2016L143.272 88.7682L141.311 87.7308L140.683 88.9183L142.644 89.9557L141.811 91.5292L139.85 90.4918L139.223 91.6788L141.184 92.7162L140.354 94.2834C140.245 94.2351 140.102 94.1569 140.003 94.1032L139.405 93.7831C138.227 93.1496 137.375 92.6924 136.585 92.9036C136.069 93.0414 135.719 93.4278 135.598 94.0637C135.553 94.3147 135.483 94.5319 135.389 94.7094C134.981 95.4801 134.006 95.527 132.483 94.8477L129.115 93.372C127.059 92.3623 125.522 90.6978 124.787 88.6813C123.984 86.4793 124.182 83.9719 125.329 81.8029C126.477 79.6334 128.438 78.0594 130.711 77.4843C132.791 76.9573 135.032 77.2906 137.023 78.4228Z" fill="white" stroke="white" stroke-width="0.00512"/>
<path d="M135.882 87.385C135.694 87.7412 137.109 89.494 137.339 89.7985C137.569 90.1019 138.178 90.0592 138.251 89.5504C138.325 89.0423 138.094 88.5553 138.094 88.5553C138.094 88.5553 138.627 88.472 139.005 88.1247C139.384 87.7786 139.077 87.2504 138.697 87.2316C138.316 87.2134 136.071 87.0283 135.882 87.385Z" fill="white" stroke="white" stroke-width="0.00512"/>
<path d="M129.291 87.8575C128.565 88.9221 128.908 90.4021 130.056 91.1622L131.129 91.926C132.278 92.6864 133.797 92.4378 134.524 91.3732C135.25 90.3075 134.908 88.8278 133.758 88.0679L132.686 87.3042C131.536 86.5443 130.018 86.7918 129.291 87.8575Z" fill="white" stroke="white" stroke-width="0.00512"/>
<path d="M135.726 80.444C134.452 79.9215 133.035 80.4713 132.564 81.6707C132.092 82.8712 132.742 84.266 134.017 84.7888L135.251 85.2462C136.526 85.7684 137.942 85.2189 138.414 84.0189C138.886 82.8189 138.236 81.423 136.961 80.9008L135.726 80.444Z" fill="white" stroke="white" stroke-width="0.00512"/>
<path d="M116.56 75.1348C117.618 74.8385 118.608 75.6346 118.868 76.563C119.395 78.4433 116.873 80.8092 116.82 80.8242C116.766 80.8391 113.383 80.1259 112.857 78.2456C112.597 77.3172 113.03 76.1229 114.088 75.8265C114.696 75.6564 115.179 75.8491 115.484 76.0517C115.64 75.7201 115.952 75.3049 116.56 75.1348Z" stroke="white" stroke-linecap="round" stroke-linejoin="round"/>
<path d="M104.56 81.1348C105.618 80.8385 106.608 81.6346 106.868 82.563C107.395 84.4433 104.873 86.8092 104.82 86.8242C104.766 86.8391 101.383 86.1259 100.857 84.2456C100.597 83.3172 101.03 82.1229 102.088 81.8265C102.696 81.6564 103.179 81.8491 103.484 82.0517C103.64 81.7201 103.952 81.3049 104.56 81.1348Z" stroke="white" stroke-linecap="round" stroke-linejoin="round"/>
<path d="M92.5598 74.1348C93.6185 73.8385 94.6084 74.6346 94.8683 75.563C95.3945 77.4433 92.8732 79.8092 92.8197 79.8242C92.7663 79.8391 89.3831 79.1259 88.8568 77.2456C88.5969 76.3172 89.0297 75.1229 90.0884 74.8265C90.6962 74.6564 91.1787 74.8491 91.4839 75.0517C91.6396 74.7201 91.952 74.3049 92.5598 74.1348Z" stroke="white" stroke-linecap="round" stroke-linejoin="round"/>
<rect x="149.569" y="42" width="33.824" height="6.28692" transform="rotate(34.5879 149.569 42)" fill="black"/>
<line x1="33.9872" y1="60.5002" x2="72.9872" y2="59.5002" stroke="white"/>
<line x1="106" y1="59.5" x2="162" y2="59.5" stroke="white"/>
<line x1="175" y1="59.5" x2="192" y2="59.5" stroke="white"/>
<rect x="130" y="46" width="6.4" height="5" fill="black"/>
<rect x="134.267" y="48" width="6.4" height="5" fill="black"/>
<rect x="136.4" y="45" width="6.4" height="5" fill="black"/>
<rect x="139.6" y="42" width="6.4" height="5" fill="black"/>
<path d="M18.46 92.3598L15.453 100.259L10.2678 94.4396L18.46 92.3598Z" fill="black"/>
<path d="M25.46 93.3598L22.453 101.259L17.2678 95.4396L25.46 93.3598Z" fill="black"/>
<path d="M76.5 104C76.5 113.593 68.2907 121.5 58 121.5C47.7093 121.5 39.5 113.593 39.5 104C39.5 94.4066 47.7093 86.5 58 86.5C68.2907 86.5 76.5 94.4066 76.5 104Z" fill="black" stroke="white" stroke-width="3"/>
<path d="M44.6128 91.1946L59.5002 103L58 105.5L42.5 94L44.6128 91.1946Z" fill="white"/>
<path d="M189.859 89.0226C197.626 94.6539 199.208 105.941 193.168 114.272C187.127 122.604 175.907 124.609 168.141 118.977C160.374 113.346 158.792 102.059 164.832 93.7276C170.873 85.3963 182.093 83.3913 189.859 89.0226Z" fill="black" stroke="white" stroke-width="3"/>
<path d="M160.775 107.321L179.071 102.199L180.215 104.881L161.806 110.679L160.775 107.321Z" fill="white"/>
</svg>
