<svg id="visual" viewBox="0 0 900 600" width="900" height="600" xmlns="http://www.w3.org/2000/svg" xmlns:xlink="http://www.w3.org/1999/xlink" version="1.1"><rect x="0" y="0" width="900" height="600" fill="#1c1f25"></rect><path d="M0 394L21.5 415.2C43 436.3 86 478.7 128.8 479.5C171.7 480.3 214.3 439.7 257.2 412.5C300 385.3 343 371.7 385.8 394.2C428.7 416.7 471.3 475.3 514.2 465.3C557 455.3 600 376.7 642.8 344.3C685.7 312 728.3 326 771.2 354.7C814 383.3 857 426.7 878.5 448.3L900 470L900 601L878.5 601C857 601 814 601 771.2 601C728.3 601 685.7 601 642.8 601C600 601 557 601 514.2 601C471.3 601 428.7 601 385.8 601C343 601 300 601 257.2 601C214.3 601 171.7 601 128.8 601C86 601 43 601 21.5 601L0 601Z" fill="#FCAF3C" stroke-linecap="round" stroke-linejoin="miter"></path></svg>