<svg id="visual" viewBox="0 0 750 332" width="750" height="332" xmlns="http://www.w3.org/2000/svg" xmlns:xlink="http://www.w3.org/1999/xlink" version="1.1"><rect x="0" y="0" width="750" height="332" fill="#1c1f25"></rect><path d="M0 273L17.8 254.7C35.7 236.3 71.3 199.7 107 181.8C142.7 164 178.3 165 214 189C249.7 213 285.3 260 321.2 275.2C357 290.3 393 273.7 428.8 273.3C464.7 273 500.3 289 536 293.8C571.7 298.7 607.3 292.3 643 283.2C678.7 274 714.3 262 732.2 256L750 250L750 333L732.2 333C714.3 333 678.7 333 643 333C607.3 333 571.7 333 536 333C500.3 333 464.7 333 428.8 333C393 333 357 333 321.2 333C285.3 333 249.7 333 214 333C178.3 333 142.7 333 107 333C71.3 333 35.7 333 17.8 333L0 333Z" fill="#FCAF3C" stroke-linecap="round" stroke-linejoin="miter"></path></svg>