<svg id="visual" viewBox="0 0 750 332" width="750" height="332" xmlns="http://www.w3.org/2000/svg" xmlns:xlink="http://www.w3.org/1999/xlink" version="1.1"><rect x="0" y="0" width="750" height="332" fill="#1c1f25"></rect><path d="M0 298L17.8 297.8C35.7 297.7 71.3 297.3 107 276.3C142.7 255.3 178.3 213.7 214 212.2C249.7 210.7 285.3 249.3 321.2 268.3C357 287.3 393 286.7 428.8 289.2C464.7 291.7 500.3 297.3 536 292C571.7 286.7 607.3 270.3 643 268C678.7 265.7 714.3 277.3 732.2 283.2L750 289L750 333L732.2 333C714.3 333 678.7 333 643 333C607.3 333 571.7 333 536 333C500.3 333 464.7 333 428.8 333C393 333 357 333 321.2 333C285.3 333 249.7 333 214 333C178.3 333 142.7 333 107 333C71.3 333 35.7 333 17.8 333L0 333Z" fill="#FCAF3C" stroke-linecap="round" stroke-linejoin="miter"></path></svg>