<svg id="visual" viewBox="0 0 750 332" width="750" height="332" xmlns="http://www.w3.org/2000/svg" xmlns:xlink="http://www.w3.org/1999/xlink" version="1.1"><rect x="0" y="0" width="750" height="332" fill="#1c1f25"></rect><path d="M0 222L17.8 214.7C35.7 207.3 71.3 192.7 107 206.8C142.7 221 178.3 264 214 263.5C249.7 263 285.3 219 321.2 209.7C357 200.3 393 225.7 428.8 217.7C464.7 209.7 500.3 168.3 536 170.2C571.7 172 607.3 217 643 218.8C678.7 220.7 714.3 179.3 732.2 158.7L750 138L750 333L732.2 333C714.3 333 678.7 333 643 333C607.3 333 571.7 333 536 333C500.3 333 464.7 333 428.8 333C393 333 357 333 321.2 333C285.3 333 249.7 333 214 333C178.3 333 142.7 333 107 333C71.3 333 35.7 333 17.8 333L0 333Z" fill="#FCAF3C" stroke-linecap="round" stroke-linejoin="miter"></path></svg>