<svg id="visual" viewBox="0 0 750 332" width="750" height="332" xmlns="http://www.w3.org/2000/svg" xmlns:xlink="http://www.w3.org/1999/xlink" version="1.1"><rect x="0" y="0" width="750" height="332" fill="#1c1f25"></rect><path d="M0 219L25 230C50 241 100 263 150 265.8C200 268.7 250 252.3 300 229.3C350 206.3 400 176.7 450 170.8C500 165 550 183 600 189C650 195 700 189 725 186L750 183L750 333L725 333C700 333 650 333 600 333C550 333 500 333 450 333C400 333 350 333 300 333C250 333 200 333 150 333C100 333 50 333 25 333L0 333Z" fill="#FCAF3C" stroke-linecap="round" stroke-linejoin="miter"></path></svg>