<svg id="visual" viewBox="0 0 750 332" width="750" height="332" xmlns="http://www.w3.org/2000/svg" xmlns:xlink="http://www.w3.org/1999/xlink" version="1.1"><rect x="0" y="0" width="750" height="332" fill="#1c1f25"></rect><path d="M0 267L25 262.3C50 257.7 100 248.3 150 242.3C200 236.3 250 233.7 300 218.3C350 203 400 175 450 178.8C500 182.7 550 218.3 600 238.7C650 259 700 264 725 266.5L750 269L750 333L725 333C700 333 650 333 600 333C550 333 500 333 450 333C400 333 350 333 300 333C250 333 200 333 150 333C100 333 50 333 25 333L0 333Z" fill="#FCAF3C" stroke-linecap="round" stroke-linejoin="miter"></path></svg>