<svg id="visual" viewBox="0 0 900 600" width="900" height="600" xmlns="http://www.w3.org/2000/svg" xmlns:xlink="http://www.w3.org/1999/xlink" version="1.1"><rect x="0" y="0" width="900" height="600" fill="#1c1f25"></rect><path d="M0 368L21.5 383C43 398 86 428 128.8 438.8C171.7 449.7 214.3 441.3 257.2 432C300 422.7 343 412.3 385.8 426.8C428.7 441.3 471.3 480.7 514.2 476.7C557 472.7 600 425.3 642.8 409.8C685.7 394.3 728.3 410.7 771.2 431.2C814 451.7 857 476.3 878.5 488.7L900 501L900 601L878.5 601C857 601 814 601 771.2 601C728.3 601 685.7 601 642.8 601C600 601 557 601 514.2 601C471.3 601 428.7 601 385.8 601C343 601 300 601 257.2 601C214.3 601 171.7 601 128.8 601C86 601 43 601 21.5 601L0 601Z" fill="#FCAF3C" stroke-linecap="round" stroke-linejoin="miter"></path></svg>